<svg  xmlns="http://www.w3.org/2000/svg" xmlns:xlink="https://www.w3.org/1999/xlink" class="railroad-diagram" width="454" height="99" viewBox="0 0 454 99"><defs><style type="text/css">@namespace url(http://www.w3.org/2000/svg);
path {
    stroke-width: 3;
    stroke: black;
    fill: rgba(0,0,0,0);
}
text {
    font: bold 14px monospace;
    text-anchor: middle;
}
text.diagram-text {
    font-size: 12px;
}
text.diagram-arrow {
    font-size: 16px;
}
text.label {
    text-anchor: start;
}
text.comment {
    font: italic 12px monospace;
}
g.non-terminal text {
    /*font-style: italic;*/
}
rect {
    stroke-width: 3;
    stroke: black;
    fill: hsl(120,100%,90%);
}
path.diagram-text {
    stroke-width: 3;
    stroke: black;
    fill: white;
    cursor: help;
}
g.diagram-text:hover path.diagram-text {
    fill: #eee;
}</style></defs>
<g transform="translate(.5 .5)">
<path d="M 20 21 v 20 m 10 -20 v 20 m -10 -10 h 20.5"></path>
<path d="M40 31h10"></path>
<g>
<path d="M50 31h0"></path>
<path d="M404 31h0"></path>
<g class="terminal">
<path d="M50 31h0"></path>
<path d="M78 31h0"></path>
<rect x="50" y="20" width="28" height="22" rx="10" ry="10"></rect>
<text x="64" y="35">&#91;</text>
</g>
<path d="M78 31h10"></path>
<g>
<path d="M88 31h0"></path>
<path d="M366 31h0"></path>
<path d="M88 31h20"></path>
<g>
<path d="M108 31h238"></path>
</g>
<path d="M346 31h20"></path>
<path d="M88 31a10 10 0 0 1 10 10v8a10 10 0 0 0 10 10"></path>
<g>
<path d="M108 59h0"></path>
<path d="M346 59h0"></path>
<g class="non-terminal">
<path d="M108 59h0"></path>
<path d="M168 59h0"></path>
<rect x="108" y="48" width="60" height="22"></rect>
<a xlink:href="#JSON"><text x="138" y="63">Value</text>
</a>
</g>
<path d="M168 59h10"></path>
<g>
<path d="M178 59h0"></path>
<path d="M346 59h0"></path>
<path d="M178 59a10 10 0 0 0 10 -10v0a10 10 0 0 1 10 -10"></path>
<g>
<path d="M198 39h128"></path>
</g>
<path d="M326 39a10 10 0 0 1 10 10v0a10 10 0 0 0 10 10"></path>
<path d="M178 59h20"></path>
<g>
<path d="M198 59h0"></path>
<path d="M326 59h0"></path>
<path d="M198 59h10"></path>
<g>
<path d="M208 59h0"></path>
<path d="M316 59h0"></path>
<g class="terminal">
<path d="M208 59h0"></path>
<path d="M236 59h0"></path>
<rect x="208" y="48" width="28" height="22" rx="10" ry="10"></rect>
<text x="222" y="63">,</text>
</g>
<path d="M236 59h10"></path>
<path d="M246 59h10"></path>
<g class="non-terminal">
<path d="M256 59h0"></path>
<path d="M316 59h0"></path>
<rect x="256" y="48" width="60" height="22"></rect>
<a xlink:href="#JSON"><text x="286" y="63">Value</text>
</a>
</g>
</g>
<path d="M316 59h10"></path>
<path d="M208 59a10 10 0 0 0 -10 10v0a10 10 0 0 0 10 10"></path>
<g>
<path d="M208 79h108"></path>
</g>
<path d="M316 79a10 10 0 0 0 10 -10v0a10 10 0 0 0 -10 -10"></path>
</g>
<path d="M326 59h20"></path>
</g>
</g>
<path d="M346 59a10 10 0 0 0 10 -10v-8a10 10 0 0 1 10 -10"></path>
</g>
<path d="M366 31h10"></path>
<g class="terminal">
<path d="M376 31h0"></path>
<path d="M404 31h0"></path>
<rect x="376" y="20" width="28" height="22" rx="10" ry="10"></rect>
<text x="390" y="35">&#93;</text>
</g>
</g>
<path d="M404 31h10"></path>
<path d="M 414 31 h 20 m -10 -10 v 20 m 10 -20 v 20"></path>
</g>
</svg>
