<?xml version="1.0"?>
<svg xmlns="http://www.w3.org/2000/svg" xmlns:xlink="http://www.w3.org/1999/xlink" width="282" height="96">
  <defs>
    <style type="text/css">@import url("json-plus-railroads-svg.css");</style>
    <script xlink:href="json-plus-railroads-svg.js"/>
  </defs>
  <polygon points="9 61 1 57 1 65"/>
  <polygon points="17 61 9 57 9 65"/>
  <rect x="31" y="47" width="26" height="32" rx="10"/>
  <rect x="29" y="45" width="26" height="32" class="terminal" rx="10"/>
  <text class="terminal" x="39" y="65">[</text>
  <a xlink:href="#Value" xlink:title="Value" href="#Value" target="_parent">
    <rect x="117" y="47" width="52" height="32"/>
    <rect x="115" y="45" width="52" height="32" class="nonterminal"/>
    <text class="nonterminal" x="125" y="65">Value</text>
  </a>
  <rect x="117" y="3" width="24" height="32" rx="10"/>
  <rect x="115" y="1" width="24" height="32" class="terminal" rx="10"/>
  <text class="terminal" x="125" y="21">,</text>
  <rect x="229" y="47" width="26" height="32" rx="10"/>
  <rect x="227" y="45" width="26" height="32" class="terminal" rx="10"/>
  <text class="terminal" x="237" y="65">]</text>
  <path class="line" d="m17 61 h2 m0 0 h10 m26 0 h10 m40 0 h10 m52 0 h10 m-92 0 l20 0 m-1 0 q-9 0 -9 -10 l0 -24 q0 -10 10 -10 m72 44 l20 0 m-20 0 q10 0 10 -10 l0 -24 q0 -10 -10 -10 m-72 0 h10 m24 0 h10 m0 0 h28 m-112 44 h20 m112 0 h20 m-152 0 q10 0 10 10 m132 0 q0 -10 10 -10 m-142 10 v14 m132 0 v-14 m-132 14 q0 10 10 10 m112 0 q10 0 10 -10 m-122 10 h10 m0 0 h102 m20 -34 h10 m26 0 h10 m3 0 h-3"/>
  <polygon points="273 61 281 57 281 65"/>
  <polygon points="273 61 265 57 265 65"/>
</svg>
