<svg  xmlns="http://www.w3.org/2000/svg" xmlns:xlink="https://www.w3.org/1999/xlink" class="railroad-diagram" width="316" height="128" viewBox="0 0 316 128"><defs><style type="text/css">@namespace url(http://www.w3.org/2000/svg);
path {
    stroke-width: 3;
    stroke: black;
    fill: rgba(0,0,0,0);
}
text {
    font: bold 14px monospace;
    text-anchor: middle;
}
text.diagram-text {
    font-size: 12px;
}
text.diagram-arrow {
    font-size: 16px;
}
text.label {
    text-anchor: start;
}
text.comment {
    font: italic 12px monospace;
}
g.non-terminal text {
    /*font-style: italic;*/
}
rect {
    stroke-width: 3;
    stroke: black;
    fill: hsl(120,100%,90%);
}
path.diagram-text {
    stroke-width: 3;
    stroke: black;
    fill: white;
    cursor: help;
}
g.diagram-text:hover path.diagram-text {
    fill: #eee;
}</style></defs>
<g transform="translate(.5 .5)">
<path d="M 20 30 v 20 m 10 -20 v 20 m -10 -10 h 20.5"></path>
<g>
<path d="M40 40h0"></path>
<path d="M276 40h0"></path>
<path d="M40 40h20"></path>
<g>
<path d="M60 40h0"></path>
<path d="M256 40h0"></path>
<g class="terminal">
<path d="M60 40h0"></path>
<path d="M96 40h0"></path>
<rect x="60" y="29" width="36" height="22" rx="10" ry="10"></rect>
<text x="78" y="44">/&#42;</text>
</g>
<path d="M96 40h10"></path>
<g>
<path d="M106 40h0"></path>
<path d="M210 40h0"></path>
<path d="M106 40a10 10 0 0 0 10 -10v0a10 10 0 0 1 10 -10"></path>
<g>
<path d="M126 20h64"></path>
</g>
<path d="M190 20a10 10 0 0 1 10 10v0a10 10 0 0 0 10 10"></path>
<path d="M106 40h20"></path>
<g>
<path d="M126 40h0"></path>
<path d="M190 40h0"></path>
<path d="M126 40h10"></path>
<g>
<path d="M136 40h0"></path>
<path d="M180 40h0"></path>
<g class="terminal">
<path d="M136 40h0"></path>
<path d="M180 40h0"></path>
<rect x="136" y="29" width="44" height="22" rx="10" ry="10"></rect>
<text x="158" y="44">Any</text>
</g>
</g>
<path d="M180 40h10"></path>
<path d="M136 40a10 10 0 0 0 -10 10v0a10 10 0 0 0 10 10"></path>
<g>
<path d="M136 60h44"></path>
</g>
<path d="M180 60a10 10 0 0 0 10 -10v0a10 10 0 0 0 -10 -10"></path>
</g>
<path d="M190 40h20"></path>
</g>
<path d="M210 40h10"></path>
<g class="terminal">
<path d="M220 40h0"></path>
<path d="M256 40h0"></path>
<rect x="220" y="29" width="36" height="22" rx="10" ry="10"></rect>
<text x="238" y="44">&#42;/</text>
</g>
</g>
<path d="M256 40h20"></path>
<path d="M40 40a10 10 0 0 1 10 10v28a10 10 0 0 0 10 10"></path>
<g>
<path d="M60 88h23"></path>
<path d="M233 88h23"></path>
<g class="terminal">
<path d="M83 88h0"></path>
<path d="M119 88h0"></path>
<rect x="83" y="77" width="36" height="22" rx="10" ry="10"></rect>
<text x="101" y="92">//</text>
</g>
<path d="M119 88h10"></path>
<g>
<path d="M129 88h0"></path>
<path d="M233 88h0"></path>
<path d="M129 88a10 10 0 0 0 10 -10v0a10 10 0 0 1 10 -10"></path>
<g>
<path d="M149 68h64"></path>
</g>
<path d="M213 68a10 10 0 0 1 10 10v0a10 10 0 0 0 10 10"></path>
<path d="M129 88h20"></path>
<g>
<path d="M149 88h0"></path>
<path d="M213 88h0"></path>
<path d="M149 88h10"></path>
<g>
<path d="M159 88h0"></path>
<path d="M203 88h0"></path>
<g class="terminal">
<path d="M159 88h0"></path>
<path d="M203 88h0"></path>
<rect x="159" y="77" width="44" height="22" rx="10" ry="10"></rect>
<text x="181" y="92">Any</text>
</g>
</g>
<path d="M203 88h10"></path>
<path d="M159 88a10 10 0 0 0 -10 10v0a10 10 0 0 0 10 10"></path>
<g>
<path d="M159 108h44"></path>
</g>
<path d="M203 108a10 10 0 0 0 10 -10v0a10 10 0 0 0 -10 -10"></path>
</g>
<path d="M213 88h20"></path>
</g>
</g>
<path d="M256 88a10 10 0 0 0 10 -10v-28a10 10 0 0 1 10 -10"></path>
</g>
<path d="M 276 40 h 20 m -10 -10 v 20 m 10 -20 v 20"></path>
</g>
</svg>
