<?xml version="1.0"?>
<svg xmlns="http://www.w3.org/2000/svg" xmlns:xlink="http://www.w3.org/1999/xlink" width="284" height="148">
  <defs>
    <style type="text/css">@import url("json-plus-railroads-svg.css");</style>
    <script xlink:href="json-plus-railroads-svg.js"/>
  </defs>
  <polygon points="9 51 1 47 1 55"/>
  <polygon points="17 51 9 47 9 55"/>
  <rect x="51" y="37" width="36" height="32" rx="10"/>
  <rect x="49" y="35" width="36" height="32" class="terminal" rx="10"/>
  <text class="terminal" x="59" y="55">/*</text>
  <polygon points="127 19 134 3 154 3 161 19 154 35 134 35"/>
  <polygon points="125 17 132 1 152 1 159 17 152 33 132 33" class="regexp"/>
  <text class="regexp" x="140" y="21">.</text>
  <rect x="201" y="37" width="36" height="32" rx="10"/>
  <rect x="199" y="35" width="36" height="32" class="terminal" rx="10"/>
  <text class="terminal" x="209" y="55">*/</text>
  <rect x="51" y="115" width="36" height="32" rx="10"/>
  <rect x="49" y="113" width="36" height="32" class="terminal" rx="10"/>
  <text class="terminal" x="59" y="133">//</text>
  <polygon points="127 97 134 81 154 81 161 97 154 113 134 113"/>
  <polygon points="125 95 132 79 152 79 159 95 152 111 132 111" class="regexp"/>
  <text class="regexp" x="140" y="99">.</text>
  <path class="line" d="m17 51 h2 m20 0 h10 m36 0 h10 m20 0 h10 m0 0 h44 m-74 0 l20 0 m-1 0 q-9 0 -9 -10 l0 -14 q0 -10 10 -10 m54 34 l20 0 m-20 0 q10 0 10 -10 l0 -14 q0 -10 -10 -10 m-54 0 h10 m34 0 h10 m20 34 h10 m36 0 h10 m-226 0 h20 m206 0 h20 m-246 0 q10 0 10 10 m226 0 q0 -10 10 -10 m-236 10 v58 m226 0 v-58 m-226 58 q0 10 10 10 m206 0 q10 0 10 -10 m-216 10 h10 m36 0 h10 m20 0 h10 m0 0 h44 m-74 0 l20 0 m-1 0 q-9 0 -9 -10 l0 -14 q0 -10 10 -10 m54 34 l20 0 m-20 0 q10 0 10 -10 l0 -14 q0 -10 -10 -10 m-54 0 h10 m34 0 h10 m20 34 h56 m23 -78 h-3"/>
  <polygon points="275 51 283 47 283 55"/>
  <polygon points="275 51 267 47 267 55"/>
</svg>
