<?xml version="1.0"?>
<svg xmlns="http://www.w3.org/2000/svg" xmlns:xlink="http://www.w3.org/1999/xlink" width="120" height="36">
  <defs>
    <style type="text/css">@import url("json-plus-railroads-svg.css");</style>
    <script xlink:href="json-plus-railroads-svg.js"/>
  </defs>
  <polygon points="9 17 1 13 1 21"/>
  <polygon points="17 17 9 13 9 21"/>
  <polygon points="31 19 38 3 86 3 93 19 86 35 38 35"/>
  <polygon points="29 17 36 1 84 1 91 17 84 33 36 33" class="regexp"/>
  <text class="regexp" x="44" y="21">[0-9]</text>
  <path class="line" d="m17 17 h2 m0 0 h10 m62 0 h10 m3 0 h-3"/>
  <polygon points="111 17 119 13 119 21"/>
  <polygon points="111 17 103 13 103 21"/>
</svg>
