<svg  xmlns="http://www.w3.org/2000/svg" xmlns:xlink="https://www.w3.org/1999/xlink" class="railroad-diagram" width="572" height="422" viewBox="0 0 572 422"><defs><style type="text/css">@namespace url(http://www.w3.org/2000/svg);
path {
    stroke-width: 3;
    stroke: black;
    fill: rgba(0,0,0,0);
}
text {
    font: bold 14px monospace;
    text-anchor: middle;
}
text.diagram-text {
    font-size: 12px;
}
text.diagram-arrow {
    font-size: 16px;
}
text.label {
    text-anchor: start;
}
text.comment {
    font: italic 12px monospace;
}
g.non-terminal text {
    /*font-style: italic;*/
}
rect {
    stroke-width: 3;
    stroke: black;
    fill: hsl(120,100%,90%);
}
path.diagram-text {
    stroke-width: 3;
    stroke: black;
    fill: white;
    cursor: help;
}
g.diagram-text:hover path.diagram-text {
    fill: #eee;
}</style></defs>
<g transform="translate(.5 .5)">
<path d="M 20 21 v 20 m 10 -20 v 20 m -10 -10 h 20.5"></path>
<g>
<path d="M40 31h0"></path>
<path d="M532 31h0"></path>
<path d="M40 31h20"></path>
<g>
<path d="M60 31h0"></path>
<path d="M512 31h0"></path>
<g class="terminal">
<path d="M60 31h0"></path>
<path d="M96 31h0"></path>
<rect x="60" y="20" width="36" height="22" rx="10" ry="10"></rect>
<text x="78" y="35">\u</text>
</g>
<path d="M96 31h10"></path>
<path d="M106 31h10"></path>
<g>
<path d="M116 31h0"></path>
<path d="M512 31h0"></path>
<g class="non-terminal">
<path d="M116 31h0"></path>
<path d="M200 31h0"></path>
<rect x="116" y="20" width="84" height="22"></rect>
<a xlink:href="#HexDigit"><text x="158" y="35">HexDigit</text>
</a>
</g>
<path d="M200 31h10"></path>
<path d="M210 31h10"></path>
<g class="non-terminal">
<path d="M220 31h0"></path>
<path d="M304 31h0"></path>
<rect x="220" y="20" width="84" height="22"></rect>
<a xlink:href="#HexDigit"><text x="262" y="35">HexDigit</text>
</a>
</g>
<path d="M304 31h10"></path>
<path d="M314 31h10"></path>
<g class="non-terminal">
<path d="M324 31h0"></path>
<path d="M408 31h0"></path>
<rect x="324" y="20" width="84" height="22"></rect>
<a xlink:href="#HexDigit"><text x="366" y="35">HexDigit</text>
</a>
</g>
<path d="M408 31h10"></path>
<path d="M418 31h10"></path>
<g class="non-terminal">
<path d="M428 31h0"></path>
<path d="M512 31h0"></path>
<rect x="428" y="20" width="84" height="22"></rect>
<a xlink:href="#HexDigit"><text x="470" y="35">HexDigit</text>
</a>
</g>
</g>
</g>
<path d="M512 31h20"></path>
<path d="M40 31a10 10 0 0 1 10 10v10a10 10 0 0 0 10 10"></path>
<g>
<path d="M60 61h173"></path>
<path d="M339 61h173"></path>
<g class="terminal">
<path d="M233 61h0"></path>
<path d="M261 61h0"></path>
<rect x="233" y="50" width="28" height="22" rx="10" ry="10"></rect>
<text x="247" y="65">\</text>
</g>
<path d="M261 61h10"></path>
<g>
<path d="M271 61h0"></path>
<path d="M339 61h0"></path>
<path d="M271 61h20"></path>
<g class="terminal">
<path d="M291 61h0"></path>
<path d="M319 61h0"></path>
<rect x="291" y="50" width="28" height="22" rx="10" ry="10"></rect>
<text x="305" y="65">"</text>
</g>
<path d="M319 61h20"></path>
<path d="M271 61a10 10 0 0 1 10 10v10a10 10 0 0 0 10 10"></path>
<g class="terminal">
<path d="M291 91h0"></path>
<path d="M319 91h0"></path>
<rect x="291" y="80" width="28" height="22" rx="10" ry="10"></rect>
<text x="305" y="95">'</text>
</g>
<path d="M319 91a10 10 0 0 0 10 -10v-10a10 10 0 0 1 10 -10"></path>
<path d="M271 61a10 10 0 0 1 10 10v40a10 10 0 0 0 10 10"></path>
<g class="terminal">
<path d="M291 121h0"></path>
<path d="M319 121h0"></path>
<rect x="291" y="110" width="28" height="22" rx="10" ry="10"></rect>
<text x="305" y="125">/</text>
</g>
<path d="M319 121a10 10 0 0 0 10 -10v-40a10 10 0 0 1 10 -10"></path>
<path d="M271 61a10 10 0 0 1 10 10v70a10 10 0 0 0 10 10"></path>
<g class="terminal">
<path d="M291 151h0"></path>
<path d="M319 151h0"></path>
<rect x="291" y="140" width="28" height="22" rx="10" ry="10"></rect>
<text x="305" y="155">\</text>
</g>
<path d="M319 151a10 10 0 0 0 10 -10v-70a10 10 0 0 1 10 -10"></path>
<path d="M271 61a10 10 0 0 1 10 10v100a10 10 0 0 0 10 10"></path>
<g class="terminal">
<path d="M291 181h0"></path>
<path d="M319 181h0"></path>
<rect x="291" y="170" width="28" height="22" rx="10" ry="10"></rect>
<text x="305" y="185">b</text>
</g>
<path d="M319 181a10 10 0 0 0 10 -10v-100a10 10 0 0 1 10 -10"></path>
<path d="M271 61a10 10 0 0 1 10 10v130a10 10 0 0 0 10 10"></path>
<g class="terminal">
<path d="M291 211h0"></path>
<path d="M319 211h0"></path>
<rect x="291" y="200" width="28" height="22" rx="10" ry="10"></rect>
<text x="305" y="215">f</text>
</g>
<path d="M319 211a10 10 0 0 0 10 -10v-130a10 10 0 0 1 10 -10"></path>
<path d="M271 61a10 10 0 0 1 10 10v160a10 10 0 0 0 10 10"></path>
<g class="terminal">
<path d="M291 241h0"></path>
<path d="M319 241h0"></path>
<rect x="291" y="230" width="28" height="22" rx="10" ry="10"></rect>
<text x="305" y="245">n</text>
</g>
<path d="M319 241a10 10 0 0 0 10 -10v-160a10 10 0 0 1 10 -10"></path>
<path d="M271 61a10 10 0 0 1 10 10v190a10 10 0 0 0 10 10"></path>
<g class="terminal">
<path d="M291 271h0"></path>
<path d="M319 271h0"></path>
<rect x="291" y="260" width="28" height="22" rx="10" ry="10"></rect>
<text x="305" y="275">r</text>
</g>
<path d="M319 271a10 10 0 0 0 10 -10v-190a10 10 0 0 1 10 -10"></path>
<path d="M271 61a10 10 0 0 1 10 10v220a10 10 0 0 0 10 10"></path>
<g class="terminal">
<path d="M291 301h0"></path>
<path d="M319 301h0"></path>
<rect x="291" y="290" width="28" height="22" rx="10" ry="10"></rect>
<text x="305" y="305">t</text>
</g>
<path d="M319 301a10 10 0 0 0 10 -10v-220a10 10 0 0 1 10 -10"></path>
</g>
</g>
<path d="M512 61a10 10 0 0 0 10 -10v-10a10 10 0 0 1 10 -10"></path>
<path d="M40 31a10 10 0 0 1 10 10v280a10 10 0 0 0 10 10"></path>
<g>
<path d="M60 331h156"></path>
<path d="M356 331h156"></path>
<path d="M216 331h20"></path>
<g>
<path d="M236 331h0"></path>
<path d="M336 331h0"></path>
<g class="terminal">
<path d="M236 331h0"></path>
<path d="M264 331h0"></path>
<rect x="236" y="320" width="28" height="22" rx="10" ry="10"></rect>
<text x="250" y="335">\</text>
</g>
<path d="M264 331h10"></path>
<path d="M274 331h10"></path>
<g class="terminal">
<path d="M284 331h0"></path>
<path d="M336 331h0"></path>
<rect x="284" y="320" width="52" height="22" rx="10" ry="10"></rect>
<text x="310" y="335">\r\n</text>
</g>
</g>
<path d="M336 331h20"></path>
<path d="M216 331a10 10 0 0 1 10 10v10a10 10 0 0 0 10 10"></path>
<g>
<path d="M236 361h8"></path>
<path d="M328 361h8"></path>
<g class="terminal">
<path d="M244 361h0"></path>
<path d="M272 361h0"></path>
<rect x="244" y="350" width="28" height="22" rx="10" ry="10"></rect>
<text x="258" y="365">\</text>
</g>
<path d="M272 361h10"></path>
<path d="M282 361h10"></path>
<g class="terminal">
<path d="M292 361h0"></path>
<path d="M328 361h0"></path>
<rect x="292" y="350" width="36" height="22" rx="10" ry="10"></rect>
<text x="310" y="365">\r</text>
</g>
</g>
<path d="M336 361a10 10 0 0 0 10 -10v-10a10 10 0 0 1 10 -10"></path>
<path d="M216 331a10 10 0 0 1 10 10v40a10 10 0 0 0 10 10"></path>
<g>
<path d="M236 391h8"></path>
<path d="M328 391h8"></path>
<g class="terminal">
<path d="M244 391h0"></path>
<path d="M272 391h0"></path>
<rect x="244" y="380" width="28" height="22" rx="10" ry="10"></rect>
<text x="258" y="395">\</text>
</g>
<path d="M272 391h10"></path>
<path d="M282 391h10"></path>
<g class="terminal">
<path d="M292 391h0"></path>
<path d="M328 391h0"></path>
<rect x="292" y="380" width="36" height="22" rx="10" ry="10"></rect>
<text x="310" y="395">\n</text>
</g>
</g>
<path d="M336 391a10 10 0 0 0 10 -10v-40a10 10 0 0 1 10 -10"></path>
</g>
<path d="M512 331a10 10 0 0 0 10 -10v-280a10 10 0 0 1 10 -10"></path>
</g>
<path d="M 532 31 h 20 m -10 -10 v 20 m 10 -20 v 20"></path>
</g>
</svg>
