<?xml version="1.0"?>
<svg xmlns="http://www.w3.org/2000/svg" xmlns:xlink="http://www.w3.org/1999/xlink" width="160" height="124">
  <defs>
    <style type="text/css">@import url("json-plus-railroads-svg.css");</style>
    <script xlink:href="json-plus-railroads-svg.js"/>
  </defs>
  <polygon points="9 17 1 13 1 21"/>
  <polygon points="17 17 9 13 9 21"/>
  <polygon points="51 19 58 3 106 3 113 19 106 35 58 35"/>
  <polygon points="49 17 56 1 104 1 111 17 104 33 56 33" class="regexp"/>
  <text class="regexp" x="64" y="21">[0-9]</text>
  <polygon points="51 63 58 47 102 47 109 63 102 79 58 79"/>
  <polygon points="49 61 56 45 100 45 107 61 100 77 56 77" class="regexp"/>
  <text class="regexp" x="64" y="65">[a-f]</text>
  <polygon points="51 107 58 91 106 91 113 107 106 123 58 123"/>
  <polygon points="49 105 56 89 104 89 111 105 104 121 56 121" class="regexp"/>
  <text class="regexp" x="64" y="109">[A-F]</text>
  <path class="line" d="m17 17 h2 m20 0 h10 m62 0 h10 m-102 0 h20 m82 0 h20 m-122 0 q10 0 10 10 m102 0 q0 -10 10 -10 m-112 10 v24 m102 0 v-24 m-102 24 q0 10 10 10 m82 0 q10 0 10 -10 m-92 10 h10 m58 0 h10 m0 0 h4 m-92 -10 v20 m102 0 v-20 m-102 20 v24 m102 0 v-24 m-102 24 q0 10 10 10 m82 0 q10 0 10 -10 m-92 10 h10 m62 0 h10 m23 -88 h-3"/>
  <polygon points="151 17 159 13 159 21"/>
  <polygon points="151 17 143 13 143 21"/>
</svg>
