<svg  xmlns="http://www.w3.org/2000/svg" xmlns:xlink="https://www.w3.org/1999/xlink" class="railroad-diagram" width="180" height="122" viewBox="0 0 180 122"><defs><style type="text/css">@namespace url(http://www.w3.org/2000/svg);
path {
    stroke-width: 3;
    stroke: black;
    fill: rgba(0,0,0,0);
}
text {
    font: bold 14px monospace;
    text-anchor: middle;
}
text.diagram-text {
    font-size: 12px;
}
text.diagram-arrow {
    font-size: 16px;
}
text.label {
    text-anchor: start;
}
text.comment {
    font: italic 12px monospace;
}
g.non-terminal text {
    /*font-style: italic;*/
}
rect {
    stroke-width: 3;
    stroke: black;
    fill: hsl(120,100%,90%);
}
path.diagram-text {
    stroke-width: 3;
    stroke: black;
    fill: white;
    cursor: help;
}
g.diagram-text:hover path.diagram-text {
    fill: #eee;
}</style></defs>
<g transform="translate(.5 .5)">
<path d="M 20 21 v 20 m 10 -20 v 20 m -10 -10 h 20.5"></path>
<g>
<path d="M40 31h0"></path>
<path d="M140 31h0"></path>
<path d="M40 31h20"></path>
<g class="terminal">
<path d="M60 31h0"></path>
<path d="M120 31h0"></path>
<rect x="60" y="20" width="60" height="22" rx="10" ry="10"></rect>
<text x="90" y="35">&#91;0-9&#93;</text>
</g>
<path d="M120 31h20"></path>
<path d="M40 31a10 10 0 0 1 10 10v10a10 10 0 0 0 10 10"></path>
<g class="terminal">
<path d="M60 61h0"></path>
<path d="M120 61h0"></path>
<rect x="60" y="50" width="60" height="22" rx="10" ry="10"></rect>
<text x="90" y="65">&#91;A-F&#93;</text>
</g>
<path d="M120 61a10 10 0 0 0 10 -10v-10a10 10 0 0 1 10 -10"></path>
<path d="M40 31a10 10 0 0 1 10 10v40a10 10 0 0 0 10 10"></path>
<g class="terminal">
<path d="M60 91h0"></path>
<path d="M120 91h0"></path>
<rect x="60" y="80" width="60" height="22" rx="10" ry="10"></rect>
<text x="90" y="95">&#91;a-f&#93;</text>
</g>
<path d="M120 91a10 10 0 0 0 10 -10v-40a10 10 0 0 1 10 -10"></path>
</g>
<path d="M 140 31 h 20 m -10 -10 v 20 m 10 -20 v 20"></path>
</g>
</svg>
