<?xml version="1.0"?>
<svg xmlns="http://www.w3.org/2000/svg" xmlns:xlink="http://www.w3.org/1999/xlink" width="362" height="184">
  <defs>
    <style type="text/css">@import url("json-plus-railroads-svg.css");</style>
    <script xlink:href="json-plus-railroads-svg.js"/>
  </defs>
  <polygon points="9 33 1 29 1 37"/>
  <polygon points="17 33 9 29 9 37"/>
  <polygon points="71 35 78 19 126 19 133 35 126 51 78 51"/>
  <polygon points="69 33 76 17 124 17 131 33 124 49 76 49" class="regexp"/>
  <text class="regexp" x="84" y="37">[A-Z]</text>
  <polygon points="71 79 78 63 124 63 131 79 124 95 78 95"/>
  <polygon points="69 77 76 61 122 61 129 77 122 93 76 93" class="regexp"/>
  <text class="regexp" x="84" y="81">[a-z]</text>
  <rect x="71" y="107" width="28" height="32" rx="10"/>
  <rect x="69" y="105" width="28" height="32" class="terminal" rx="10"/>
  <text class="terminal" x="79" y="125">_</text>
  <polygon points="233 35 240 19 288 19 295 35 288 51 240 51"/>
  <polygon points="231 33 238 17 286 17 293 33 286 49 238 49" class="regexp"/>
  <text class="regexp" x="246" y="37">[A-Z]</text>
  <polygon points="233 79 240 63 286 63 293 79 286 95 240 95"/>
  <polygon points="231 77 238 61 284 61 291 77 284 93 238 93" class="regexp"/>
  <text class="regexp" x="246" y="81">[a-z]</text>
  <polygon points="233 123 240 107 288 107 295 123 288 139 240 139"/>
  <polygon points="231 121 238 105 286 105 293 121 286 137 238 137" class="regexp"/>
  <text class="regexp" x="246" y="125">[0-9]</text>
  <rect x="233" y="151" width="28" height="32" rx="10"/>
  <rect x="231" y="149" width="28" height="32" class="terminal" rx="10"/>
  <text class="terminal" x="241" y="169">_</text>
  <path class="line" d="m17 33 h2 m40 0 h10 m62 0 h10 m-102 0 h20 m82 0 h20 m-122 0 q10 0 10 10 m102 0 q0 -10 10 -10 m-112 10 v24 m102 0 v-24 m-102 24 q0 10 10 10 m82 0 q10 0 10 -10 m-92 10 h10 m60 0 h10 m0 0 h2 m-92 -10 v20 m102 0 v-20 m-102 20 v24 m102 0 v-24 m-102 24 q0 10 10 10 m82 0 q10 0 10 -10 m-92 10 h10 m28 0 h10 m0 0 h34 m-122 -88 l20 0 m-1 0 q-9 0 -9 -10 l0 -12 q0 -10 10 -10 m122 32 l20 0 m-20 0 q10 0 10 -10 l0 -12 q0 -10 -10 -10 m-122 0 h10 m0 0 h112 m60 32 h10 m62 0 h10 m-102 0 h20 m82 0 h20 m-122 0 q10 0 10 10 m102 0 q0 -10 10 -10 m-112 10 v24 m102 0 v-24 m-102 24 q0 10 10 10 m82 0 q10 0 10 -10 m-92 10 h10 m60 0 h10 m0 0 h2 m-92 -10 v20 m102 0 v-20 m-102 20 v24 m102 0 v-24 m-102 24 q0 10 10 10 m82 0 q10 0 10 -10 m-92 10 h10 m62 0 h10 m-92 -10 v20 m102 0 v-20 m-102 20 v24 m102 0 v-24 m-102 24 q0 10 10 10 m82 0 q10 0 10 -10 m-92 10 h10 m28 0 h10 m0 0 h34 m-122 -132 l20 0 m-1 0 q-9 0 -9 -10 l0 -12 q0 -10 10 -10 m122 32 l20 0 m-20 0 q10 0 10 -10 l0 -12 q0 -10 -10 -10 m-122 0 h10 m0 0 h112 m23 32 h-3"/>
  <polygon points="353 33 361 29 361 37"/>
  <polygon points="353 33 345 29 345 37"/>
</svg>
