<svg  xmlns="http://www.w3.org/2000/svg" xmlns:xlink="https://www.w3.org/1999/xlink" class="railroad-diagram" width="360" height="169" viewBox="0 0 360 169"><defs><style type="text/css">@namespace url(http://www.w3.org/2000/svg);
path {
    stroke-width: 3;
    stroke: black;
    fill: rgba(0,0,0,0);
}
text {
    font: bold 14px monospace;
    text-anchor: middle;
}
text.diagram-text {
    font-size: 12px;
}
text.diagram-arrow {
    font-size: 16px;
}
text.label {
    text-anchor: start;
}
text.comment {
    font: italic 12px monospace;
}
g.non-terminal text {
    /*font-style: italic;*/
}
rect {
    stroke-width: 3;
    stroke: black;
    fill: hsl(120,100%,90%);
}
path.diagram-text {
    stroke-width: 3;
    stroke: black;
    fill: white;
    cursor: help;
}
g.diagram-text:hover path.diagram-text {
    fill: #eee;
}</style></defs>
<g transform="translate(.5 .5)">
<path d="M 20 30 v 20 m 10 -20 v 20 m -10 -10 h 20.5"></path>
<path d="M40 40h10"></path>
<g>
<path d="M50 40h0"></path>
<path d="M310 40h0"></path>
<g>
<path d="M50 40h0"></path>
<path d="M150 40h0"></path>
<path d="M50 40h20"></path>
<g class="terminal">
<path d="M70 40h0"></path>
<path d="M130 40h0"></path>
<rect x="70" y="29" width="60" height="22" rx="10" ry="10"></rect>
<text x="100" y="44">&#91;A-Z&#93;</text>
</g>
<path d="M130 40h20"></path>
<path d="M50 40a10 10 0 0 1 10 10v10a10 10 0 0 0 10 10"></path>
<g class="terminal">
<path d="M70 70h0"></path>
<path d="M130 70h0"></path>
<rect x="70" y="59" width="60" height="22" rx="10" ry="10"></rect>
<text x="100" y="74">&#91;a-z&#93;</text>
</g>
<path d="M130 70a10 10 0 0 0 10 -10v-10a10 10 0 0 1 10 -10"></path>
<path d="M50 40a10 10 0 0 1 10 10v40a10 10 0 0 0 10 10"></path>
<g class="terminal">
<path d="M70 100h16"></path>
<path d="M114 100h16"></path>
<rect x="86" y="89" width="28" height="22" rx="10" ry="10"></rect>
<text x="100" y="104">&#95;</text>
</g>
<path d="M130 100a10 10 0 0 0 10 -10v-40a10 10 0 0 1 10 -10"></path>
</g>
<g>
<path d="M150 40h0"></path>
<path d="M310 40h0"></path>
<path d="M150 40a10 10 0 0 0 10 -10v0a10 10 0 0 1 10 -10"></path>
<g>
<path d="M170 20h120"></path>
</g>
<path d="M290 20a10 10 0 0 1 10 10v0a10 10 0 0 0 10 10"></path>
<path d="M150 40h20"></path>
<g>
<path d="M170 40h0"></path>
<path d="M290 40h0"></path>
<path d="M170 40h10"></path>
<g>
<path d="M180 40h0"></path>
<path d="M280 40h0"></path>
<path d="M180 40h20"></path>
<g class="terminal">
<path d="M200 40h0"></path>
<path d="M260 40h0"></path>
<rect x="200" y="29" width="60" height="22" rx="10" ry="10"></rect>
<text x="230" y="44">&#91;A-Z&#93;</text>
</g>
<path d="M260 40h20"></path>
<path d="M180 40a10 10 0 0 1 10 10v10a10 10 0 0 0 10 10"></path>
<g class="terminal">
<path d="M200 70h0"></path>
<path d="M260 70h0"></path>
<rect x="200" y="59" width="60" height="22" rx="10" ry="10"></rect>
<text x="230" y="74">&#91;a-z&#93;</text>
</g>
<path d="M260 70a10 10 0 0 0 10 -10v-10a10 10 0 0 1 10 -10"></path>
<path d="M180 40a10 10 0 0 1 10 10v40a10 10 0 0 0 10 10"></path>
<g class="terminal">
<path d="M200 100h0"></path>
<path d="M260 100h0"></path>
<rect x="200" y="89" width="60" height="22" rx="10" ry="10"></rect>
<text x="230" y="104">&#91;0-9&#93;</text>
</g>
<path d="M260 100a10 10 0 0 0 10 -10v-40a10 10 0 0 1 10 -10"></path>
<path d="M180 40a10 10 0 0 1 10 10v70a10 10 0 0 0 10 10"></path>
<g class="terminal">
<path d="M200 130h16"></path>
<path d="M244 130h16"></path>
<rect x="216" y="119" width="28" height="22" rx="10" ry="10"></rect>
<text x="230" y="134">&#95;</text>
</g>
<path d="M260 130a10 10 0 0 0 10 -10v-70a10 10 0 0 1 10 -10"></path>
</g>
<path d="M280 40h10"></path>
<path d="M180 40a10 10 0 0 0 -10 10v89a10 10 0 0 0 10 10"></path>
<g>
<path d="M180 149h100"></path>
</g>
<path d="M280 149a10 10 0 0 0 10 -10v-89a10 10 0 0 0 -10 -10"></path>
</g>
<path d="M290 40h20"></path>
</g>
</g>
<path d="M310 40h10"></path>
<path d="M 320 40 h 20 m -10 -10 v 20 m 10 -20 v 20"></path>
</g>
</svg>
