<?xml version="1.0"?>
<svg xmlns="http://www.w3.org/2000/svg" xmlns:xlink="http://www.w3.org/1999/xlink" width="900" height="144">
  <defs>
    <style type="text/css">@import url("json-plus-railroads-svg.css");</style>
    <script xlink:href="json-plus-railroads-svg.js"/>
  </defs>
  <polygon points="9 33 1 29 1 37"/>
  <polygon points="17 33 9 29 9 37"/>
  <rect x="51" y="51" width="26" height="32" rx="10"/>
  <rect x="49" y="49" width="26" height="32" class="terminal" rx="10"/>
  <text class="terminal" x="59" y="69">-</text>
  <rect x="137" y="19" width="28" height="32" rx="10"/>
  <rect x="135" y="17" width="28" height="32" class="terminal" rx="10"/>
  <text class="terminal" x="145" y="37">0</text>
  <polygon points="137 101 144 85 192 85 199 101 192 117 144 117"/>
  <polygon points="135 99 142 83 190 83 197 99 190 115 142 115" class="regexp"/>
  <text class="regexp" x="150" y="103">[1-9]</text>
  <a xlink:href="#digit" xlink:title="digit" href="#digit" target="_parent">
    <rect x="239" y="85" width="44" height="32"/>
    <rect x="237" y="83" width="44" height="32" class="nonterminal"/>
    <text class="nonterminal" x="247" y="103">digit</text>
  </a>
  <rect x="383" y="51" width="24" height="32" rx="10"/>
  <rect x="381" y="49" width="24" height="32" class="terminal" rx="10"/>
  <text class="terminal" x="391" y="69">.</text>
  <a xlink:href="#digit" xlink:title="digit" href="#digit" target="_parent">
    <rect x="467" y="19" width="44" height="32"/>
    <rect x="465" y="17" width="44" height="32" class="nonterminal"/>
    <text class="nonterminal" x="475" y="37">digit</text>
  </a>
  <rect x="611" y="19" width="28" height="32" rx="10"/>
  <rect x="609" y="17" width="28" height="32" class="terminal" rx="10"/>
  <text class="terminal" x="619" y="37">e</text>
  <rect x="611" y="63" width="28" height="32" rx="10"/>
  <rect x="609" y="61" width="28" height="32" class="terminal" rx="10"/>
  <text class="terminal" x="619" y="81">E</text>
  <rect x="699" y="51" width="30" height="32" rx="10"/>
  <rect x="697" y="49" width="30" height="32" class="terminal" rx="10"/>
  <text class="terminal" x="707" y="69">+</text>
  <rect x="699" y="95" width="26" height="32" rx="10"/>
  <rect x="697" y="93" width="26" height="32" class="terminal" rx="10"/>
  <text class="terminal" x="707" y="113">-</text>
  <a xlink:href="#digit" xlink:title="digit" href="#digit" target="_parent">
    <rect x="789" y="19" width="44" height="32"/>
    <rect x="787" y="17" width="44" height="32" class="nonterminal"/>
    <text class="nonterminal" x="797" y="37">digit</text>
  </a>
  <path class="line" d="m17 33 h2 m20 0 h10 m0 0 h36 m-66 0 h20 m46 0 h20 m-86 0 q10 0 10 10 m66 0 q0 -10 10 -10 m-76 10 v12 m66 0 v-12 m-66 12 q0 10 10 10 m46 0 q10 0 10 -10 m-56 10 h10 m26 0 h10 m40 -32 h10 m28 0 h10 m0 0 h138 m-206 0 h20 m186 0 h20 m-226 0 q10 0 10 10 m206 0 q0 -10 10 -10 m-216 10 v46 m206 0 v-46 m-206 46 q0 10 10 10 m186 0 q10 0 10 -10 m-196 10 h10 m62 0 h10 m20 0 h10 m44 0 h10 m-84 0 l20 0 m-1 0 q-9 0 -9 -10 l0 -12 q0 -10 10 -10 m64 32 l20 0 m-20 0 q10 0 10 -10 l0 -12 q0 -10 -10 -10 m-64 0 h10 m0 0 h54 m80 -34 h10 m0 0 h34 m-64 0 h20 m44 0 h20 m-84 0 q10 0 10 10 m64 0 q0 -10 10 -10 m-74 10 v12 m64 0 v-12 m-64 12 q0 10 10 10 m44 0 q10 0 10 -10 m-54 10 h10 m24 0 h10 m40 -32 h10 m44 0 h10 m-84 0 l20 0 m-1 0 q-9 0 -9 -10 l0 -12 q0 -10 10 -10 m64 32 l20 0 m-20 0 q10 0 10 -10 l0 -12 q0 -10 -10 -10 m-64 0 h10 m0 0 h54 m-188 32 h20 m188 0 h20 m-228 0 q10 0 10 10 m208 0 q0 -10 10 -10 m-218 10 v46 m208 0 v-46 m-208 46 q0 10 10 10 m188 0 q10 0 10 -10 m-198 10 h10 m0 0 h178 m60 -66 h10 m28 0 h10 m-68 0 h20 m48 0 h20 m-88 0 q10 0 10 10 m68 0 q0 -10 10 -10 m-78 10 v24 m68 0 v-24 m-68 24 q0 10 10 10 m48 0 q10 0 10 -10 m-58 10 h10 m28 0 h10 m40 -44 h10 m0 0 h40 m-70 0 h20 m50 0 h20 m-90 0 q10 0 10 10 m70 0 q0 -10 10 -10 m-80 10 v12 m70 0 v-12 m-70 12 q0 10 10 10 m50 0 q10 0 10 -10 m-60 10 h10 m30 0 h10 m-60 -10 v20 m70 0 v-20 m-70 20 v24 m70 0 v-24 m-70 24 q0 10 10 10 m50 0 q10 0 10 -10 m-60 10 h10 m26 0 h10 m0 0 h4 m40 -76 h10 m44 0 h10 m-84 0 l20 0 m-1 0 q-9 0 -9 -10 l0 -12 q0 -10 10 -10 m64 32 l20 0 m-20 0 q10 0 10 -10 l0 -12 q0 -10 -10 -10 m-64 0 h10 m0 0 h54 m-282 32 h20 m282 0 h20 m-322 0 q10 0 10 10 m302 0 q0 -10 10 -10 m-312 10 v90 m302 0 v-90 m-302 90 q0 10 10 10 m282 0 q10 0 10 -10 m-292 10 h10 m0 0 h272 m23 -110 h-3"/>
  <polygon points="891 33 899 29 899 37"/>
  <polygon points="891 33 883 29 883 37"/>
</svg>
