<svg  xmlns="http://www.w3.org/2000/svg" xmlns:xlink="https://www.w3.org/1999/xlink" class="railroad-diagram" width="244" height="122" viewBox="0 0 244 122"><defs><style type="text/css">@namespace url(http://www.w3.org/2000/svg);
path {
    stroke-width: 3;
    stroke: black;
    fill: rgba(0,0,0,0);
}
text {
    font: bold 14px monospace;
    text-anchor: middle;
}
text.diagram-text {
    font-size: 12px;
}
text.diagram-arrow {
    font-size: 16px;
}
text.label {
    text-anchor: start;
}
text.comment {
    font: italic 12px monospace;
}
g.non-terminal text {
    /*font-style: italic;*/
}
rect {
    stroke-width: 3;
    stroke: black;
    fill: hsl(120,100%,90%);
}
path.diagram-text {
    stroke-width: 3;
    stroke: black;
    fill: white;
    cursor: help;
}
g.diagram-text:hover path.diagram-text {
    fill: #eee;
}</style></defs>
<g transform="translate(.5 .5)">
<path d="M 20 21 v 20 m 10 -20 v 20 m -10 -10 h 20.5"></path>
<g>
<path d="M40 31h0"></path>
<path d="M204 31h0"></path>
<path d="M40 31h20"></path>
<g class="non-terminal">
<path d="M60 31h0"></path>
<path d="M184 31h0"></path>
<rect x="60" y="20" width="124" height="22"></rect>
<a xlink:href="#LiteralNumber"><text x="122" y="35">LiteralNumber</text>
</a>
</g>
<path d="M184 31h20"></path>
<path d="M40 31a10 10 0 0 1 10 10v10a10 10 0 0 0 10 10"></path>
<g class="non-terminal">
<path d="M60 61h12"></path>
<path d="M172 61h12"></path>
<rect x="72" y="50" width="100" height="22"></rect>
<a xlink:href="#Infinitive"><text x="122" y="65">Infinitive</text>
</a>
</g>
<path d="M184 61a10 10 0 0 0 10 -10v-10a10 10 0 0 1 10 -10"></path>
<path d="M40 31a10 10 0 0 1 10 10v40a10 10 0 0 0 10 10"></path>
<g class="non-terminal">
<path d="M60 91h40"></path>
<path d="M144 91h40"></path>
<rect x="100" y="80" width="44" height="22"></rect>
<a xlink:href="#NaN"><text x="122" y="95">NaN</text>
</a>
</g>
<path d="M184 91a10 10 0 0 0 10 -10v-40a10 10 0 0 1 10 -10"></path>
</g>
<path d="M 204 31 h 20 m -10 -10 v 20 m 10 -20 v 20"></path>
</g>
</svg>
