<svg  xmlns="http://www.w3.org/2000/svg" xmlns:xlink="https://www.w3.org/1999/xlink" class="railroad-diagram" width="802" height="242" viewBox="0 0 802 242"><defs><style type="text/css">@namespace url(http://www.w3.org/2000/svg);
path {
    stroke-width: 3;
    stroke: black;
    fill: rgba(0,0,0,0);
}
text {
    font: bold 14px monospace;
    text-anchor: middle;
}
text.diagram-text {
    font-size: 12px;
}
text.diagram-arrow {
    font-size: 16px;
}
text.label {
    text-anchor: start;
}
text.comment {
    font: italic 12px monospace;
}
g.non-terminal text {
    /*font-style: italic;*/
}
rect {
    stroke-width: 3;
    stroke: black;
    fill: hsl(120,100%,90%);
}
path.diagram-text {
    stroke-width: 3;
    stroke: black;
    fill: white;
    cursor: help;
}
g.diagram-text:hover path.diagram-text {
    fill: #eee;
}</style></defs>
<g transform="translate(.5 .5)">
<path d="M 20 21 v 20 m 10 -20 v 20 m -10 -10 h 20.5"></path>
<g>
<path d="M40 31h0"></path>
<path d="M762 31h0"></path>
<path d="M40 31h20"></path>
<g>
<path d="M60 31h0"></path>
<path d="M742 31h0"></path>
<g>
<path d="M60 31h0"></path>
<path d="M168 31h0"></path>
<path d="M60 31h20"></path>
<g>
<path d="M80 31h68"></path>
</g>
<path d="M148 31h20"></path>
<path d="M60 31a10 10 0 0 1 10 10v0a10 10 0 0 0 10 10"></path>
<g>
<path d="M80 51h0"></path>
<path d="M148 51h0"></path>
<path d="M80 51h20"></path>
<g class="terminal">
<path d="M100 51h0"></path>
<path d="M128 51h0"></path>
<rect x="100" y="40" width="28" height="22" rx="10" ry="10"></rect>
<text x="114" y="55">+</text>
</g>
<path d="M128 51h20"></path>
<path d="M80 51a10 10 0 0 1 10 10v10a10 10 0 0 0 10 10"></path>
<g class="terminal">
<path d="M100 81h0"></path>
<path d="M128 81h0"></path>
<rect x="100" y="70" width="28" height="22" rx="10" ry="10"></rect>
<text x="114" y="85">-</text>
</g>
<path d="M128 81a10 10 0 0 0 10 -10v-10a10 10 0 0 1 10 -10"></path>
</g>
<path d="M148 51a10 10 0 0 0 10 -10v0a10 10 0 0 1 10 -10"></path>
</g>
<path d="M168 31h10"></path>
<g>
<path d="M178 31h0"></path>
<path d="M258 31h0"></path>
<path d="M178 31h10"></path>
<g class="non-terminal">
<path d="M188 31h0"></path>
<path d="M248 31h0"></path>
<rect x="188" y="20" width="60" height="22"></rect>
<a xlink:href="#Digit"><text x="218" y="35">Digit</text>
</a>
</g>
<path d="M248 31h10"></path>
<path d="M188 31a10 10 0 0 0 -10 10v0a10 10 0 0 0 10 10"></path>
<g>
<path d="M188 51h60"></path>
</g>
<path d="M248 51a10 10 0 0 0 10 -10v0a10 10 0 0 0 -10 -10"></path>
</g>
<path d="M258 31h10"></path>
<g>
<path d="M268 31h0"></path>
<path d="M436 31h0"></path>
<path d="M268 31h20"></path>
<g>
<path d="M288 31h128"></path>
</g>
<path d="M416 31h20"></path>
<path d="M268 31a10 10 0 0 1 10 10v0a10 10 0 0 0 10 10"></path>
<g>
<path d="M288 51h0"></path>
<path d="M416 51h0"></path>
<g class="terminal">
<path d="M288 51h0"></path>
<path d="M316 51h0"></path>
<rect x="288" y="40" width="28" height="22" rx="10" ry="10"></rect>
<text x="302" y="55">.</text>
</g>
<path d="M316 51h10"></path>
<path d="M326 51h10"></path>
<g>
<path d="M336 51h0"></path>
<path d="M416 51h0"></path>
<path d="M336 51h10"></path>
<g class="non-terminal">
<path d="M346 51h0"></path>
<path d="M406 51h0"></path>
<rect x="346" y="40" width="60" height="22"></rect>
<a xlink:href="#Digit"><text x="376" y="55">Digit</text>
</a>
</g>
<path d="M406 51h10"></path>
<path d="M346 51a10 10 0 0 0 -10 10v0a10 10 0 0 0 10 10"></path>
<g>
<path d="M346 71h60"></path>
</g>
<path d="M406 71a10 10 0 0 0 10 -10v0a10 10 0 0 0 -10 -10"></path>
</g>
</g>
<path d="M416 51a10 10 0 0 0 10 -10v0a10 10 0 0 1 10 -10"></path>
</g>
<g>
<path d="M436 31h0"></path>
<path d="M742 31h0"></path>
<path d="M436 31h20"></path>
<g>
<path d="M456 31h266"></path>
</g>
<path d="M722 31h20"></path>
<path d="M436 31a10 10 0 0 1 10 10v0a10 10 0 0 0 10 10"></path>
<g>
<path d="M456 51h0"></path>
<path d="M722 51h0"></path>
<g>
<path d="M456 51h0"></path>
<path d="M524 51h0"></path>
<path d="M456 51h20"></path>
<g class="terminal">
<path d="M476 51h0"></path>
<path d="M504 51h0"></path>
<rect x="476" y="40" width="28" height="22" rx="10" ry="10"></rect>
<text x="490" y="55">e</text>
</g>
<path d="M504 51h20"></path>
<path d="M456 51a10 10 0 0 1 10 10v10a10 10 0 0 0 10 10"></path>
<g class="terminal">
<path d="M476 81h0"></path>
<path d="M504 81h0"></path>
<rect x="476" y="70" width="28" height="22" rx="10" ry="10"></rect>
<text x="490" y="85">E</text>
</g>
<path d="M504 81a10 10 0 0 0 10 -10v-10a10 10 0 0 1 10 -10"></path>
</g>
<g>
<path d="M524 51h0"></path>
<path d="M632 51h0"></path>
<path d="M524 51h20"></path>
<g>
<path d="M544 51h68"></path>
</g>
<path d="M612 51h20"></path>
<path d="M524 51a10 10 0 0 1 10 10v0a10 10 0 0 0 10 10"></path>
<g>
<path d="M544 71h0"></path>
<path d="M612 71h0"></path>
<path d="M544 71h20"></path>
<g class="terminal">
<path d="M564 71h0"></path>
<path d="M592 71h0"></path>
<rect x="564" y="60" width="28" height="22" rx="10" ry="10"></rect>
<text x="578" y="75">+</text>
</g>
<path d="M592 71h20"></path>
<path d="M544 71a10 10 0 0 1 10 10v10a10 10 0 0 0 10 10"></path>
<g class="terminal">
<path d="M564 101h0"></path>
<path d="M592 101h0"></path>
<rect x="564" y="90" width="28" height="22" rx="10" ry="10"></rect>
<text x="578" y="105">-</text>
</g>
<path d="M592 101a10 10 0 0 0 10 -10v-10a10 10 0 0 1 10 -10"></path>
</g>
<path d="M612 71a10 10 0 0 0 10 -10v0a10 10 0 0 1 10 -10"></path>
</g>
<path d="M632 51h10"></path>
<g>
<path d="M642 51h0"></path>
<path d="M722 51h0"></path>
<path d="M642 51h10"></path>
<g class="non-terminal">
<path d="M652 51h0"></path>
<path d="M712 51h0"></path>
<rect x="652" y="40" width="60" height="22"></rect>
<a xlink:href="#Digit"><text x="682" y="55">Digit</text>
</a>
</g>
<path d="M712 51h10"></path>
<path d="M652 51a10 10 0 0 0 -10 10v0a10 10 0 0 0 10 10"></path>
<g>
<path d="M652 71h60"></path>
</g>
<path d="M712 71a10 10 0 0 0 10 -10v0a10 10 0 0 0 -10 -10"></path>
</g>
</g>
<path d="M722 51a10 10 0 0 0 10 -10v0a10 10 0 0 1 10 -10"></path>
</g>
</g>
<path d="M742 31h20"></path>
<path d="M40 31a10 10 0 0 1 10 10v80a10 10 0 0 0 10 10"></path>
<g>
<path d="M60 131h225"></path>
<path d="M517 131h225"></path>
<g>
<path d="M285 131h0"></path>
<path d="M393 131h0"></path>
<path d="M285 131h20"></path>
<g>
<path d="M305 131h68"></path>
</g>
<path d="M373 131h20"></path>
<path d="M285 131a10 10 0 0 1 10 10v0a10 10 0 0 0 10 10"></path>
<g>
<path d="M305 151h0"></path>
<path d="M373 151h0"></path>
<path d="M305 151h20"></path>
<g class="terminal">
<path d="M325 151h0"></path>
<path d="M353 151h0"></path>
<rect x="325" y="140" width="28" height="22" rx="10" ry="10"></rect>
<text x="339" y="155">+</text>
</g>
<path d="M353 151h20"></path>
<path d="M305 151a10 10 0 0 1 10 10v10a10 10 0 0 0 10 10"></path>
<g class="terminal">
<path d="M325 181h0"></path>
<path d="M353 181h0"></path>
<rect x="325" y="170" width="28" height="22" rx="10" ry="10"></rect>
<text x="339" y="185">-</text>
</g>
<path d="M353 181a10 10 0 0 0 10 -10v-10a10 10 0 0 1 10 -10"></path>
</g>
<path d="M373 151a10 10 0 0 0 10 -10v0a10 10 0 0 1 10 -10"></path>
</g>
<g>
<path d="M393 131h0"></path>
<path d="M517 131h0"></path>
<path d="M393 131h20"></path>
<g class="terminal">
<path d="M413 131h0"></path>
<path d="M497 131h0"></path>
<rect x="413" y="120" width="84" height="22" rx="10" ry="10"></rect>
<text x="455" y="135">Infinity</text>
</g>
<path d="M497 131h20"></path>
<path d="M393 131a10 10 0 0 1 10 10v10a10 10 0 0 0 10 10"></path>
<g class="terminal">
<path d="M413 161h20"></path>
<path d="M477 161h20"></path>
<rect x="433" y="150" width="44" height="22" rx="10" ry="10"></rect>
<text x="455" y="165">Inf</text>
</g>
<path d="M497 161a10 10 0 0 0 10 -10v-10a10 10 0 0 1 10 -10"></path>
</g>
</g>
<path d="M742 131a10 10 0 0 0 10 -10v-80a10 10 0 0 1 10 -10"></path>
<path d="M40 31a10 10 0 0 1 10 10v160a10 10 0 0 0 10 10"></path>
<g class="terminal">
<path d="M60 211h319"></path>
<path d="M423 211h319"></path>
<rect x="379" y="200" width="44" height="22" rx="10" ry="10"></rect>
<text x="401" y="215">NaN</text>
</g>
<path d="M742 211a10 10 0 0 0 10 -10v-160a10 10 0 0 1 10 -10"></path>
</g>
<path d="M 762 31 h 20 m -10 -10 v 20 m 10 -20 v 20"></path>
</g>
</svg>
