<svg  xmlns="http://www.w3.org/2000/svg" xmlns:xlink="https://www.w3.org/1999/xlink" class="railroad-diagram" width="832" height="261" viewBox="0 0 832 261"><defs><style type="text/css">@namespace url(http://www.w3.org/2000/svg);
path {
    stroke-width: 3;
    stroke: black;
    fill: rgba(0,0,0,0);
}
text {
    font: bold 14px monospace;
    text-anchor: middle;
}
text.diagram-text {
    font-size: 12px;
}
text.diagram-arrow {
    font-size: 16px;
}
text.label {
    text-anchor: start;
}
text.comment {
    font: italic 12px monospace;
}
g.non-terminal text {
    /*font-style: italic;*/
}
rect {
    stroke-width: 3;
    stroke: black;
    fill: hsl(120,100%,90%);
}
path.diagram-text {
    stroke-width: 3;
    stroke: black;
    fill: white;
    cursor: help;
}
g.diagram-text:hover path.diagram-text {
    fill: #eee;
}</style></defs>
<g transform="translate(.5 .5)">
<path d="M 20 21 v 20 m 10 -20 v 20 m -10 -10 h 20.5"></path>
<g>
<path d="M40 31h0"></path>
<path d="M792 31h0"></path>
<path d="M40 31h20"></path>
<g class="terminal">
<path d="M60 31h334"></path>
<path d="M438 31h334"></path>
<rect x="394" y="20" width="44" height="22" rx="10" ry="10"></rect>
<text x="416" y="35">NaN</text>
</g>
<path d="M772 31h20"></path>
<path d="M40 31a10 10 0 0 1 10 10v10a10 10 0 0 0 10 10"></path>
<g>
<path d="M60 61h0"></path>
<path d="M772 61h0"></path>
<g>
<path d="M60 61h0"></path>
<path d="M168 61h0"></path>
<path d="M60 61h20"></path>
<g>
<path d="M80 61h68"></path>
</g>
<path d="M148 61h20"></path>
<path d="M60 61a10 10 0 0 1 10 10v0a10 10 0 0 0 10 10"></path>
<g>
<path d="M80 81h0"></path>
<path d="M148 81h0"></path>
<path d="M80 81h20"></path>
<g class="terminal">
<path d="M100 81h0"></path>
<path d="M128 81h0"></path>
<rect x="100" y="70" width="28" height="22" rx="10" ry="10"></rect>
<text x="114" y="85">+</text>
</g>
<path d="M128 81h20"></path>
<path d="M80 81a10 10 0 0 1 10 10v10a10 10 0 0 0 10 10"></path>
<g class="terminal">
<path d="M100 111h0"></path>
<path d="M128 111h0"></path>
<rect x="100" y="100" width="28" height="22" rx="10" ry="10"></rect>
<text x="114" y="115">-</text>
</g>
<path d="M128 111a10 10 0 0 0 10 -10v-10a10 10 0 0 1 10 -10"></path>
</g>
<path d="M148 81a10 10 0 0 0 10 -10v0a10 10 0 0 1 10 -10"></path>
</g>
<g>
<path d="M168 61h0"></path>
<path d="M772 61h0"></path>
<path d="M168 61h20"></path>
<g>
<path d="M188 61h202"></path>
<path d="M550 61h202"></path>
<g class="terminal">
<path d="M390 61h0"></path>
<path d="M426 61h0"></path>
<rect x="390" y="50" width="36" height="22" rx="10" ry="10"></rect>
<text x="408" y="65">0x</text>
</g>
<path d="M426 61h10"></path>
<path d="M436 61h10"></path>
<g>
<path d="M446 61h0"></path>
<path d="M550 61h0"></path>
<path d="M446 61h10"></path>
<g class="non-terminal">
<path d="M456 61h0"></path>
<path d="M540 61h0"></path>
<rect x="456" y="50" width="84" height="22"></rect>
<a xlink:href="#HexDigit"><text x="498" y="65">HexDigit</text>
</a>
</g>
<path d="M540 61h10"></path>
<path d="M456 61a10 10 0 0 0 -10 10v0a10 10 0 0 0 10 10"></path>
<g>
<path d="M456 81h84"></path>
</g>
<path d="M540 81a10 10 0 0 0 10 -10v0a10 10 0 0 0 -10 -10"></path>
</g>
</g>
<path d="M752 61h20"></path>
<path d="M168 61a10 10 0 0 1 10 10v19a10 10 0 0 0 10 10"></path>
<g>
<path d="M188 100h0"></path>
<path d="M752 100h0"></path>
<g>
<path d="M188 100h0"></path>
<path d="M268 100h0"></path>
<path d="M188 100h10"></path>
<g class="non-terminal">
<path d="M198 100h0"></path>
<path d="M258 100h0"></path>
<rect x="198" y="89" width="60" height="22"></rect>
<a xlink:href="#Digit"><text x="228" y="104">Digit</text>
</a>
</g>
<path d="M258 100h10"></path>
<path d="M198 100a10 10 0 0 0 -10 10v0a10 10 0 0 0 10 10"></path>
<g>
<path d="M198 120h60"></path>
</g>
<path d="M258 120a10 10 0 0 0 10 -10v0a10 10 0 0 0 -10 -10"></path>
</g>
<path d="M268 100h10"></path>
<g>
<path d="M278 100h0"></path>
<path d="M446 100h0"></path>
<path d="M278 100h20"></path>
<g>
<path d="M298 100h128"></path>
</g>
<path d="M426 100h20"></path>
<path d="M278 100a10 10 0 0 1 10 10v0a10 10 0 0 0 10 10"></path>
<g>
<path d="M298 120h0"></path>
<path d="M426 120h0"></path>
<g class="terminal">
<path d="M298 120h0"></path>
<path d="M326 120h0"></path>
<rect x="298" y="109" width="28" height="22" rx="10" ry="10"></rect>
<text x="312" y="124">.</text>
</g>
<path d="M326 120h10"></path>
<path d="M336 120h10"></path>
<g>
<path d="M346 120h0"></path>
<path d="M426 120h0"></path>
<path d="M346 120h10"></path>
<g class="non-terminal">
<path d="M356 120h0"></path>
<path d="M416 120h0"></path>
<rect x="356" y="109" width="60" height="22"></rect>
<a xlink:href="#Digit"><text x="386" y="124">Digit</text>
</a>
</g>
<path d="M416 120h10"></path>
<path d="M356 120a10 10 0 0 0 -10 10v0a10 10 0 0 0 10 10"></path>
<g>
<path d="M356 140h60"></path>
</g>
<path d="M416 140a10 10 0 0 0 10 -10v0a10 10 0 0 0 -10 -10"></path>
</g>
</g>
<path d="M426 120a10 10 0 0 0 10 -10v0a10 10 0 0 1 10 -10"></path>
</g>
<g>
<path d="M446 100h0"></path>
<path d="M752 100h0"></path>
<path d="M446 100h20"></path>
<g>
<path d="M466 100h266"></path>
</g>
<path d="M732 100h20"></path>
<path d="M446 100a10 10 0 0 1 10 10v0a10 10 0 0 0 10 10"></path>
<g>
<path d="M466 120h0"></path>
<path d="M732 120h0"></path>
<g>
<path d="M466 120h0"></path>
<path d="M534 120h0"></path>
<path d="M466 120h20"></path>
<g class="terminal">
<path d="M486 120h0"></path>
<path d="M514 120h0"></path>
<rect x="486" y="109" width="28" height="22" rx="10" ry="10"></rect>
<text x="500" y="124">e</text>
</g>
<path d="M514 120h20"></path>
<path d="M466 120a10 10 0 0 1 10 10v10a10 10 0 0 0 10 10"></path>
<g class="terminal">
<path d="M486 150h0"></path>
<path d="M514 150h0"></path>
<rect x="486" y="139" width="28" height="22" rx="10" ry="10"></rect>
<text x="500" y="154">E</text>
</g>
<path d="M514 150a10 10 0 0 0 10 -10v-10a10 10 0 0 1 10 -10"></path>
</g>
<g>
<path d="M534 120h0"></path>
<path d="M642 120h0"></path>
<path d="M534 120h20"></path>
<g>
<path d="M554 120h68"></path>
</g>
<path d="M622 120h20"></path>
<path d="M534 120a10 10 0 0 1 10 10v0a10 10 0 0 0 10 10"></path>
<g>
<path d="M554 140h0"></path>
<path d="M622 140h0"></path>
<path d="M554 140h20"></path>
<g class="terminal">
<path d="M574 140h0"></path>
<path d="M602 140h0"></path>
<rect x="574" y="129" width="28" height="22" rx="10" ry="10"></rect>
<text x="588" y="144">+</text>
</g>
<path d="M602 140h20"></path>
<path d="M554 140a10 10 0 0 1 10 10v10a10 10 0 0 0 10 10"></path>
<g class="terminal">
<path d="M574 170h0"></path>
<path d="M602 170h0"></path>
<rect x="574" y="159" width="28" height="22" rx="10" ry="10"></rect>
<text x="588" y="174">-</text>
</g>
<path d="M602 170a10 10 0 0 0 10 -10v-10a10 10 0 0 1 10 -10"></path>
</g>
<path d="M622 140a10 10 0 0 0 10 -10v0a10 10 0 0 1 10 -10"></path>
</g>
<path d="M642 120h10"></path>
<g>
<path d="M652 120h0"></path>
<path d="M732 120h0"></path>
<path d="M652 120h10"></path>
<g class="non-terminal">
<path d="M662 120h0"></path>
<path d="M722 120h0"></path>
<rect x="662" y="109" width="60" height="22"></rect>
<a xlink:href="#Digit"><text x="692" y="124">Digit</text>
</a>
</g>
<path d="M722 120h10"></path>
<path d="M662 120a10 10 0 0 0 -10 10v0a10 10 0 0 0 10 10"></path>
<g>
<path d="M662 140h60"></path>
</g>
<path d="M722 140a10 10 0 0 0 10 -10v0a10 10 0 0 0 -10 -10"></path>
</g>
</g>
<path d="M732 120a10 10 0 0 0 10 -10v0a10 10 0 0 1 10 -10"></path>
</g>
</g>
<path d="M752 100a10 10 0 0 0 10 -10v-19a10 10 0 0 1 10 -10"></path>
<path d="M168 61a10 10 0 0 1 10 10v119a10 10 0 0 0 10 10"></path>
<g>
<path d="M188 200h220"></path>
<path d="M532 200h220"></path>
<path d="M408 200h20"></path>
<g class="terminal">
<path d="M428 200h0"></path>
<path d="M512 200h0"></path>
<rect x="428" y="189" width="84" height="22" rx="10" ry="10"></rect>
<text x="470" y="204">Infinity</text>
</g>
<path d="M512 200h20"></path>
<path d="M408 200a10 10 0 0 1 10 10v10a10 10 0 0 0 10 10"></path>
<g class="terminal">
<path d="M428 230h20"></path>
<path d="M492 230h20"></path>
<rect x="448" y="219" width="44" height="22" rx="10" ry="10"></rect>
<text x="470" y="234">Inf</text>
</g>
<path d="M512 230a10 10 0 0 0 10 -10v-10a10 10 0 0 1 10 -10"></path>
</g>
<path d="M752 200a10 10 0 0 0 10 -10v-119a10 10 0 0 1 10 -10"></path>
</g>
</g>
<path d="M772 61a10 10 0 0 0 10 -10v-10a10 10 0 0 1 10 -10"></path>
</g>
<path d="M 792 31 h 20 m -10 -10 v 20 m 10 -20 v 20"></path>
</g>
</svg>
