<svg  xmlns="http://www.w3.org/2000/svg" xmlns:xlink="https://www.w3.org/1999/xlink" class="railroad-diagram" width="782" height="132" viewBox="0 0 782 132"><defs><style type="text/css">@namespace url(http://www.w3.org/2000/svg);
path {
    stroke-width: 3;
    stroke: black;
    fill: rgba(0,0,0,0);
}
text {
    font: bold 14px monospace;
    text-anchor: middle;
}
text.diagram-text {
    font-size: 12px;
}
text.diagram-arrow {
    font-size: 16px;
}
text.label {
    text-anchor: start;
}
text.comment {
    font: italic 12px monospace;
}
g.non-terminal text {
    /*font-style: italic;*/
}
rect {
    stroke-width: 3;
    stroke: black;
    fill: hsl(120,100%,90%);
}
path.diagram-text {
    stroke-width: 3;
    stroke: black;
    fill: white;
    cursor: help;
}
g.diagram-text:hover path.diagram-text {
    fill: #eee;
}</style></defs>
<g transform="translate(.5 .5)">
<path d="M 20 21 v 20 m 10 -20 v 20 m -10 -10 h 20.5"></path>
<path d="M40 31h10"></path>
<g>
<path d="M50 31h0"></path>
<path d="M732 31h0"></path>
<g>
<path d="M50 31h0"></path>
<path d="M158 31h0"></path>
<path d="M50 31h20"></path>
<g>
<path d="M70 31h68"></path>
</g>
<path d="M138 31h20"></path>
<path d="M50 31a10 10 0 0 1 10 10v0a10 10 0 0 0 10 10"></path>
<g>
<path d="M70 51h0"></path>
<path d="M138 51h0"></path>
<path d="M70 51h20"></path>
<g class="terminal">
<path d="M90 51h0"></path>
<path d="M118 51h0"></path>
<rect x="90" y="40" width="28" height="22" rx="10" ry="10"></rect>
<text x="104" y="55">+</text>
</g>
<path d="M118 51h20"></path>
<path d="M70 51a10 10 0 0 1 10 10v10a10 10 0 0 0 10 10"></path>
<g class="terminal">
<path d="M90 81h0"></path>
<path d="M118 81h0"></path>
<rect x="90" y="70" width="28" height="22" rx="10" ry="10"></rect>
<text x="104" y="85">-</text>
</g>
<path d="M118 81a10 10 0 0 0 10 -10v-10a10 10 0 0 1 10 -10"></path>
</g>
<path d="M138 51a10 10 0 0 0 10 -10v0a10 10 0 0 1 10 -10"></path>
</g>
<path d="M158 31h10"></path>
<g>
<path d="M168 31h0"></path>
<path d="M248 31h0"></path>
<path d="M168 31h10"></path>
<g class="non-terminal">
<path d="M178 31h0"></path>
<path d="M238 31h0"></path>
<rect x="178" y="20" width="60" height="22"></rect>
<a xlink:href="#Digit"><text x="208" y="35">Digit</text>
</a>
</g>
<path d="M238 31h10"></path>
<path d="M178 31a10 10 0 0 0 -10 10v0a10 10 0 0 0 10 10"></path>
<g>
<path d="M178 51h60"></path>
</g>
<path d="M238 51a10 10 0 0 0 10 -10v0a10 10 0 0 0 -10 -10"></path>
</g>
<path d="M248 31h10"></path>
<g>
<path d="M258 31h0"></path>
<path d="M426 31h0"></path>
<path d="M258 31h20"></path>
<g>
<path d="M278 31h128"></path>
</g>
<path d="M406 31h20"></path>
<path d="M258 31a10 10 0 0 1 10 10v0a10 10 0 0 0 10 10"></path>
<g>
<path d="M278 51h0"></path>
<path d="M406 51h0"></path>
<g class="terminal">
<path d="M278 51h0"></path>
<path d="M306 51h0"></path>
<rect x="278" y="40" width="28" height="22" rx="10" ry="10"></rect>
<text x="292" y="55">.</text>
</g>
<path d="M306 51h10"></path>
<path d="M316 51h10"></path>
<g>
<path d="M326 51h0"></path>
<path d="M406 51h0"></path>
<path d="M326 51h10"></path>
<g class="non-terminal">
<path d="M336 51h0"></path>
<path d="M396 51h0"></path>
<rect x="336" y="40" width="60" height="22"></rect>
<a xlink:href="#Digit"><text x="366" y="55">Digit</text>
</a>
</g>
<path d="M396 51h10"></path>
<path d="M336 51a10 10 0 0 0 -10 10v0a10 10 0 0 0 10 10"></path>
<g>
<path d="M336 71h60"></path>
</g>
<path d="M396 71a10 10 0 0 0 10 -10v0a10 10 0 0 0 -10 -10"></path>
</g>
</g>
<path d="M406 51a10 10 0 0 0 10 -10v0a10 10 0 0 1 10 -10"></path>
</g>
<g>
<path d="M426 31h0"></path>
<path d="M732 31h0"></path>
<path d="M426 31h20"></path>
<g>
<path d="M446 31h266"></path>
</g>
<path d="M712 31h20"></path>
<path d="M426 31a10 10 0 0 1 10 10v0a10 10 0 0 0 10 10"></path>
<g>
<path d="M446 51h0"></path>
<path d="M712 51h0"></path>
<g>
<path d="M446 51h0"></path>
<path d="M514 51h0"></path>
<path d="M446 51h20"></path>
<g class="terminal">
<path d="M466 51h0"></path>
<path d="M494 51h0"></path>
<rect x="466" y="40" width="28" height="22" rx="10" ry="10"></rect>
<text x="480" y="55">e</text>
</g>
<path d="M494 51h20"></path>
<path d="M446 51a10 10 0 0 1 10 10v10a10 10 0 0 0 10 10"></path>
<g class="terminal">
<path d="M466 81h0"></path>
<path d="M494 81h0"></path>
<rect x="466" y="70" width="28" height="22" rx="10" ry="10"></rect>
<text x="480" y="85">E</text>
</g>
<path d="M494 81a10 10 0 0 0 10 -10v-10a10 10 0 0 1 10 -10"></path>
</g>
<g>
<path d="M514 51h0"></path>
<path d="M622 51h0"></path>
<path d="M514 51h20"></path>
<g>
<path d="M534 51h68"></path>
</g>
<path d="M602 51h20"></path>
<path d="M514 51a10 10 0 0 1 10 10v0a10 10 0 0 0 10 10"></path>
<g>
<path d="M534 71h0"></path>
<path d="M602 71h0"></path>
<path d="M534 71h20"></path>
<g class="terminal">
<path d="M554 71h0"></path>
<path d="M582 71h0"></path>
<rect x="554" y="60" width="28" height="22" rx="10" ry="10"></rect>
<text x="568" y="75">+</text>
</g>
<path d="M582 71h20"></path>
<path d="M534 71a10 10 0 0 1 10 10v10a10 10 0 0 0 10 10"></path>
<g class="terminal">
<path d="M554 101h0"></path>
<path d="M582 101h0"></path>
<rect x="554" y="90" width="28" height="22" rx="10" ry="10"></rect>
<text x="568" y="105">-</text>
</g>
<path d="M582 101a10 10 0 0 0 10 -10v-10a10 10 0 0 1 10 -10"></path>
</g>
<path d="M602 71a10 10 0 0 0 10 -10v0a10 10 0 0 1 10 -10"></path>
</g>
<path d="M622 51h10"></path>
<g>
<path d="M632 51h0"></path>
<path d="M712 51h0"></path>
<path d="M632 51h10"></path>
<g class="non-terminal">
<path d="M642 51h0"></path>
<path d="M702 51h0"></path>
<rect x="642" y="40" width="60" height="22"></rect>
<a xlink:href="#Digit"><text x="672" y="55">Digit</text>
</a>
</g>
<path d="M702 51h10"></path>
<path d="M642 51a10 10 0 0 0 -10 10v0a10 10 0 0 0 10 10"></path>
<g>
<path d="M642 71h60"></path>
</g>
<path d="M702 71a10 10 0 0 0 10 -10v0a10 10 0 0 0 -10 -10"></path>
</g>
</g>
<path d="M712 51a10 10 0 0 0 10 -10v0a10 10 0 0 1 10 -10"></path>
</g>
</g>
<path d="M732 31h10"></path>
<path d="M 742 31 h 20 m -10 -10 v 20 m 10 -20 v 20"></path>
</g>
</svg>
