<?xml version="1.0"?>
<svg xmlns="http://www.w3.org/2000/svg" xmlns:xlink="http://www.w3.org/1999/xlink" width="552" height="140">
  <defs>
    <style type="text/css">@import url("json-plus-railroads-svg.css");</style>
    <script xlink:href="json-plus-railroads-svg.js"/>
  </defs>
  <polygon points="9 61 1 57 1 65"/>
  <polygon points="17 61 9 57 9 65"/>
  <a xlink:href="#Type" xlink:title="Type" href="#Type" target="_parent">
    <rect x="51" y="79" width="48" height="32"/>
    <rect x="49" y="77" width="48" height="32" class="nonterminal"/>
    <text class="nonterminal" x="59" y="97">Type</text>
  </a>
  <rect x="139" y="47" width="28" height="32" rx="10"/>
  <rect x="137" y="45" width="28" height="32" class="terminal" rx="10"/>
  <text class="terminal" x="147" y="65">{</text>
  <a xlink:href="#String" xlink:title="String" href="#String" target="_parent">
    <rect x="247" y="47" width="54" height="32"/>
    <rect x="245" y="45" width="54" height="32" class="nonterminal"/>
    <text class="nonterminal" x="255" y="65">String</text>
  </a>
  <a xlink:href="#Name" xlink:title="Name" href="#Name" target="_parent">
    <rect x="247" y="91" width="54" height="32"/>
    <rect x="245" y="89" width="54" height="32" class="nonterminal"/>
    <text class="nonterminal" x="255" y="109">Name</text>
  </a>
  <rect x="341" y="47" width="24" height="32" rx="10"/>
  <rect x="339" y="45" width="24" height="32" class="terminal" rx="10"/>
  <text class="terminal" x="349" y="65">:</text>
  <a xlink:href="#Value" xlink:title="Value" href="#Value" target="_parent">
    <rect x="385" y="47" width="52" height="32"/>
    <rect x="383" y="45" width="52" height="32" class="nonterminal"/>
    <text class="nonterminal" x="393" y="65">Value</text>
  </a>
  <rect x="227" y="3" width="24" height="32" rx="10"/>
  <rect x="225" y="1" width="24" height="32" class="terminal" rx="10"/>
  <text class="terminal" x="235" y="21">,</text>
  <rect x="497" y="47" width="28" height="32" rx="10"/>
  <rect x="495" y="45" width="28" height="32" class="terminal" rx="10"/>
  <text class="terminal" x="505" y="65">}</text>
  <path class="line" d="m17 61 h2 m20 0 h10 m0 0 h58 m-88 0 h20 m68 0 h20 m-108 0 q10 0 10 10 m88 0 q0 -10 10 -10 m-98 10 v12 m88 0 v-12 m-88 12 q0 10 10 10 m68 0 q10 0 10 -10 m-78 10 h10 m48 0 h10 m20 -32 h10 m28 0 h10 m60 0 h10 m54 0 h10 m-94 0 h20 m74 0 h20 m-114 0 q10 0 10 10 m94 0 q0 -10 10 -10 m-104 10 v24 m94 0 v-24 m-94 24 q0 10 10 10 m74 0 q10 0 10 -10 m-84 10 h10 m54 0 h10 m20 -44 h10 m24 0 h10 m0 0 h10 m52 0 h10 m-250 0 l20 0 m-1 0 q-9 0 -9 -10 l0 -24 q0 -10 10 -10 m230 44 l20 0 m-20 0 q10 0 10 -10 l0 -24 q0 -10 -10 -10 m-230 0 h10 m24 0 h10 m0 0 h186 m-270 44 h20 m270 0 h20 m-310 0 q10 0 10 10 m290 0 q0 -10 10 -10 m-300 10 v58 m290 0 v-58 m-290 58 q0 10 10 10 m270 0 q10 0 10 -10 m-280 10 h10 m0 0 h260 m20 -78 h10 m28 0 h10 m3 0 h-3"/>
  <polygon points="543 61 551 57 551 65"/>
  <polygon points="543 61 535 57 535 65"/>
</svg>
