<svg  xmlns="http://www.w3.org/2000/svg" xmlns:xlink="https://www.w3.org/1999/xlink" class="railroad-diagram" width="1000" height="128" viewBox="0 0 1000 128"><defs><style type="text/css">@namespace url(http://www.w3.org/2000/svg);
path {
    stroke-width: 3;
    stroke: black;
    fill: rgba(0,0,0,0);
}
text {
    font: bold 14px monospace;
    text-anchor: middle;
}
text.diagram-text {
    font-size: 12px;
}
text.diagram-arrow {
    font-size: 16px;
}
text.label {
    text-anchor: start;
}
text.comment {
    font: italic 12px monospace;
}
g.non-terminal text {
    /*font-style: italic;*/
}
rect {
    stroke-width: 3;
    stroke: black;
    fill: hsl(120,100%,90%);
}
path.diagram-text {
    stroke-width: 3;
    stroke: black;
    fill: white;
    cursor: help;
}
g.diagram-text:hover path.diagram-text {
    fill: #eee;
}</style></defs>
<g transform="translate(.5 .5)">
<path d="M 20 21 v 20 m 10 -20 v 20 m -10 -10 h 20.5"></path>
<path d="M40 31h10"></path>
<g>
<path d="M50 31h0"></path>
<path d="M950 31h0"></path>
<g>
<path d="M50 31h0"></path>
<path d="M190 31h0"></path>
<path d="M50 31h20"></path>
<g>
<path d="M70 31h100"></path>
</g>
<path d="M170 31h20"></path>
<path d="M50 31a10 10 0 0 1 10 10v0a10 10 0 0 0 10 10"></path>
<g>
<path d="M70 51h0"></path>
<path d="M170 51h0"></path>
<g class="non-terminal">
<path d="M70 51h0"></path>
<path d="M170 51h0"></path>
<rect x="70" y="40" width="100" height="22"></rect>
<a xlink:href="#Identifier"><text x="120" y="55">Identifier</text>
</a>
</g>
</g>
<path d="M170 51a10 10 0 0 0 10 -10v0a10 10 0 0 1 10 -10"></path>
</g>
<path d="M190 31h10"></path>
<g class="terminal">
<path d="M200 31h0"></path>
<path d="M228 31h0"></path>
<rect x="200" y="20" width="28" height="22" rx="10" ry="10"></rect>
<text x="214" y="35">{</text>
</g>
<path d="M228 31h10"></path>
<g>
<path d="M238 31h0"></path>
<path d="M912 31h0"></path>
<path d="M238 31h20"></path>
<g>
<path d="M258 31h634"></path>
</g>
<path d="M892 31h20"></path>
<path d="M238 31a10 10 0 0 1 10 10v8a10 10 0 0 0 10 10"></path>
<g>
<path d="M258 59h0"></path>
<path d="M892 59h0"></path>
<g>
<path d="M258 59h0"></path>
<path d="M516 59h0"></path>
<g>
<path d="M258 59h0"></path>
<path d="M446 59h0"></path>
<path d="M258 59h20"></path>
<g>
<path d="M278 59h0"></path>
<path d="M426 59h0"></path>
<g class="non-terminal">
<path d="M278 59h0"></path>
<path d="M378 59h0"></path>
<rect x="278" y="48" width="100" height="22"></rect>
<a xlink:href="#Identifier"><text x="328" y="63">Identifier</text>
</a>
</g>
<path d="M378 59h10"></path>
<path d="M388 59h10"></path>
<g class="terminal">
<path d="M398 59h0"></path>
<path d="M426 59h0"></path>
<rect x="398" y="48" width="28" height="22" rx="10" ry="10"></rect>
<text x="412" y="63">:</text>
</g>
</g>
<path d="M426 59h20"></path>
<path d="M258 59a10 10 0 0 1 10 10v10a10 10 0 0 0 10 10"></path>
<g>
<path d="M278 89h16"></path>
<path d="M410 89h16"></path>
<g class="non-terminal">
<path d="M294 89h0"></path>
<path d="M362 89h0"></path>
<rect x="294" y="78" width="68" height="22"></rect>
<a xlink:href="#String"><text x="328" y="93">String</text>
</a>
</g>
<path d="M362 89h10"></path>
<path d="M372 89h10"></path>
<g class="terminal">
<path d="M382 89h0"></path>
<path d="M410 89h0"></path>
<rect x="382" y="78" width="28" height="22" rx="10" ry="10"></rect>
<text x="396" y="93">:</text>
</g>
</g>
<path d="M426 89a10 10 0 0 0 10 -10v-10a10 10 0 0 1 10 -10"></path>
</g>
<path d="M446 59h10"></path>
<g class="non-terminal">
<path d="M456 59h0"></path>
<path d="M516 59h0"></path>
<rect x="456" y="48" width="60" height="22"></rect>
<a xlink:href="#JSON"><text x="486" y="63">Value</text>
</a>
</g>
</g>
<path d="M516 59h10"></path>
<g>
<path d="M526 59h0"></path>
<path d="M892 59h0"></path>
<path d="M526 59a10 10 0 0 0 10 -10v0a10 10 0 0 1 10 -10"></path>
<g>
<path d="M546 39h326"></path>
</g>
<path d="M872 39a10 10 0 0 1 10 10v0a10 10 0 0 0 10 10"></path>
<path d="M526 59h20"></path>
<g>
<path d="M546 59h0"></path>
<path d="M872 59h0"></path>
<path d="M546 59h10"></path>
<g>
<path d="M556 59h0"></path>
<path d="M862 59h0"></path>
<g class="terminal">
<path d="M556 59h0"></path>
<path d="M584 59h0"></path>
<rect x="556" y="48" width="28" height="22" rx="10" ry="10"></rect>
<text x="570" y="63">,</text>
</g>
<path d="M584 59h10"></path>
<path d="M594 59h10"></path>
<g>
<path d="M604 59h0"></path>
<path d="M862 59h0"></path>
<g>
<path d="M604 59h0"></path>
<path d="M792 59h0"></path>
<path d="M604 59h20"></path>
<g>
<path d="M624 59h0"></path>
<path d="M772 59h0"></path>
<g class="non-terminal">
<path d="M624 59h0"></path>
<path d="M724 59h0"></path>
<rect x="624" y="48" width="100" height="22"></rect>
<a xlink:href="#Identifier"><text x="674" y="63">Identifier</text>
</a>
</g>
<path d="M724 59h10"></path>
<path d="M734 59h10"></path>
<g class="terminal">
<path d="M744 59h0"></path>
<path d="M772 59h0"></path>
<rect x="744" y="48" width="28" height="22" rx="10" ry="10"></rect>
<text x="758" y="63">:</text>
</g>
</g>
<path d="M772 59h20"></path>
<path d="M604 59a10 10 0 0 1 10 10v10a10 10 0 0 0 10 10"></path>
<g>
<path d="M624 89h16"></path>
<path d="M756 89h16"></path>
<g class="non-terminal">
<path d="M640 89h0"></path>
<path d="M708 89h0"></path>
<rect x="640" y="78" width="68" height="22"></rect>
<a xlink:href="#String"><text x="674" y="93">String</text>
</a>
</g>
<path d="M708 89h10"></path>
<path d="M718 89h10"></path>
<g class="terminal">
<path d="M728 89h0"></path>
<path d="M756 89h0"></path>
<rect x="728" y="78" width="28" height="22" rx="10" ry="10"></rect>
<text x="742" y="93">:</text>
</g>
</g>
<path d="M772 89a10 10 0 0 0 10 -10v-10a10 10 0 0 1 10 -10"></path>
</g>
<path d="M792 59h10"></path>
<g class="non-terminal">
<path d="M802 59h0"></path>
<path d="M862 59h0"></path>
<rect x="802" y="48" width="60" height="22"></rect>
<a xlink:href="#JSON"><text x="832" y="63">Value</text>
</a>
</g>
</g>
</g>
<path d="M862 59h10"></path>
<path d="M556 59a10 10 0 0 0 -10 10v29a10 10 0 0 0 10 10"></path>
<g>
<path d="M556 108h306"></path>
</g>
<path d="M862 108a10 10 0 0 0 10 -10v-29a10 10 0 0 0 -10 -10"></path>
</g>
<path d="M872 59h20"></path>
</g>
</g>
<path d="M892 59a10 10 0 0 0 10 -10v-8a10 10 0 0 1 10 -10"></path>
</g>
<path d="M912 31h10"></path>
<g class="terminal">
<path d="M922 31h0"></path>
<path d="M950 31h0"></path>
<rect x="922" y="20" width="28" height="22" rx="10" ry="10"></rect>
<text x="936" y="35">}</text>
</g>
</g>
<path d="M950 31h10"></path>
<path d="M 960 31 h 20 m -10 -10 v 20 m 10 -20 v 20"></path>
</g>
</svg>
