<?xml version="1.0"?>
<svg xmlns="http://www.w3.org/2000/svg" xmlns:xlink="http://www.w3.org/1999/xlink" width="178" height="36">
  <defs>
    <style type="text/css">@import url("json-plus-railroads-svg.css");</style>
    <script xlink:href="json-plus-railroads-svg.js"/>
  </defs>
  <polygon points="9 17 1 13 1 21"/>
  <polygon points="17 17 9 13 9 21"/>
  <rect x="31" y="3" width="30" height="32" rx="10"/>
  <rect x="29" y="1" width="30" height="32" class="terminal" rx="10"/>
  <text class="terminal" x="39" y="21">@</text>
  <a xlink:href="#Identifier" xlink:title="Identifier" href="#Identifier" target="_parent">
    <rect x="81" y="3" width="70" height="32"/>
    <rect x="79" y="1" width="70" height="32" class="nonterminal"/>
    <text class="nonterminal" x="89" y="21">Identifier</text>
  </a>
  <path class="line" d="m17 17 h2 m0 0 h10 m30 0 h10 m0 0 h10 m70 0 h10 m3 0 h-3"/>
  <polygon points="169 17 177 13 177 21"/>
  <polygon points="169 17 161 13 161 21"/>
</svg>
