<svg  xmlns="http://www.w3.org/2000/svg" xmlns:xlink="https://www.w3.org/1999/xlink" class="railroad-diagram" width="248" height="62" viewBox="0 0 248 62"><defs><style type="text/css">@namespace url(http://www.w3.org/2000/svg);
path {
    stroke-width: 3;
    stroke: black;
    fill: rgba(0,0,0,0);
}
text {
    font: bold 14px monospace;
    text-anchor: middle;
}
text.diagram-text {
    font-size: 12px;
}
text.diagram-arrow {
    font-size: 16px;
}
text.label {
    text-anchor: start;
}
text.comment {
    font: italic 12px monospace;
}
g.non-terminal text {
    /*font-style: italic;*/
}
rect {
    stroke-width: 3;
    stroke: black;
    fill: hsl(120,100%,90%);
}
path.diagram-text {
    stroke-width: 3;
    stroke: black;
    fill: white;
    cursor: help;
}
g.diagram-text:hover path.diagram-text {
    fill: #eee;
}</style></defs>
<g transform="translate(.5 .5)">
<path d="M 20 21 v 20 m 10 -20 v 20 m -10 -10 h 20.5"></path>
<path d="M40 31h10"></path>
<g>
<path d="M50 31h0"></path>
<path d="M198 31h0"></path>
<g class="terminal">
<path d="M50 31h0"></path>
<path d="M78 31h0"></path>
<rect x="50" y="20" width="28" height="22" rx="10" ry="10"></rect>
<text x="64" y="35">@</text>
</g>
<path d="M78 31h10"></path>
<path d="M88 31h10"></path>
<g class="non-terminal">
<path d="M98 31h0"></path>
<path d="M198 31h0"></path>
<rect x="98" y="20" width="100" height="22"></rect>
<a xlink:href="#Identifier"><text x="148" y="35">Identifier</text>
</a>
</g>
</g>
<path d="M198 31h10"></path>
<path d="M 208 31 h 20 m -10 -10 v 20 m 10 -20 v 20"></path>
</g>
</svg>
