<?xml version="1.0"?>
<svg xmlns="http://www.w3.org/2000/svg" xmlns:xlink="http://www.w3.org/1999/xlink" width="698" height="464">
  <defs>
    <style type="text/css">@import url("json-plus-railroads-svg.css");</style>
    <script xlink:href="json-plus-railroads-svg.js"/>
  </defs>
  <polygon points="9 33 1 29 1 37"/>
  <polygon points="17 33 9 29 9 37"/>
  <rect x="31" y="19" width="26" height="32" rx="10"/>
  <rect x="29" y="17" width="26" height="32" class="terminal" rx="10"/>
  <text class="terminal" x="39" y="37">"</text>
  <rect x="117" y="19" width="36" height="32" rx="10"/>
  <rect x="115" y="17" width="36" height="32" class="terminal" rx="10"/>
  <text class="terminal" x="125" y="37">\\</text>
  <rect x="193" y="19" width="28" height="32" rx="10"/>
  <rect x="191" y="17" width="28" height="32" class="terminal" rx="10"/>
  <text class="terminal" x="201" y="37">u</text>
  <a xlink:href="#hexDigit" xlink:title="hexDigit" href="#hexDigit" target="_parent">
    <rect x="241" y="19" width="66" height="32"/>
    <rect x="239" y="17" width="66" height="32" class="nonterminal"/>
    <text class="nonterminal" x="249" y="37">hexDigit</text>
  </a>
  <a xlink:href="#hexDigit" xlink:title="hexDigit" href="#hexDigit" target="_parent">
    <rect x="327" y="19" width="66" height="32"/>
    <rect x="325" y="17" width="66" height="32" class="nonterminal"/>
    <text class="nonterminal" x="335" y="37">hexDigit</text>
  </a>
  <a xlink:href="#hexDigit" xlink:title="hexDigit" href="#hexDigit" target="_parent">
    <rect x="413" y="19" width="66" height="32"/>
    <rect x="411" y="17" width="66" height="32" class="nonterminal"/>
    <text class="nonterminal" x="421" y="37">hexDigit</text>
  </a>
  <a xlink:href="#hexDigit" xlink:title="hexDigit" href="#hexDigit" target="_parent">
    <rect x="499" y="19" width="66" height="32"/>
    <rect x="497" y="17" width="66" height="32" class="nonterminal"/>
    <text class="nonterminal" x="507" y="37">hexDigit</text>
  </a>
  <rect x="193" y="63" width="26" height="32" rx="10"/>
  <rect x="191" y="61" width="26" height="32" class="terminal" rx="10"/>
  <text class="terminal" x="201" y="81">"</text>
  <rect x="193" y="107" width="28" height="32" rx="10"/>
  <rect x="191" y="105" width="28" height="32" class="terminal" rx="10"/>
  <text class="terminal" x="201" y="125">/</text>
  <rect x="193" y="151" width="28" height="32" rx="10"/>
  <rect x="191" y="149" width="28" height="32" class="terminal" rx="10"/>
  <text class="terminal" x="201" y="169">\</text>
  <rect x="193" y="195" width="28" height="32" rx="10"/>
  <rect x="191" y="193" width="28" height="32" class="terminal" rx="10"/>
  <text class="terminal" x="201" y="213">b</text>
  <rect x="193" y="239" width="24" height="32" rx="10"/>
  <rect x="191" y="237" width="24" height="32" class="terminal" rx="10"/>
  <text class="terminal" x="201" y="257">f</text>
  <rect x="193" y="283" width="28" height="32" rx="10"/>
  <rect x="191" y="281" width="28" height="32" class="terminal" rx="10"/>
  <text class="terminal" x="201" y="301">n</text>
  <rect x="193" y="327" width="26" height="32" rx="10"/>
  <rect x="191" y="325" width="26" height="32" class="terminal" rx="10"/>
  <text class="terminal" x="201" y="345">r</text>
  <rect x="193" y="371" width="26" height="32" rx="10"/>
  <rect x="191" y="369" width="26" height="32" class="terminal" rx="10"/>
  <text class="terminal" x="201" y="389">t</text>
  <a xlink:href="#StringChar" xlink:title="StringChar" href="#StringChar" target="_parent">
    <rect x="193" y="415" width="82" height="32"/>
    <rect x="191" y="413" width="82" height="32" class="nonterminal"/>
    <text class="nonterminal" x="201" y="433">StringChar</text>
  </a>
  <rect x="645" y="19" width="26" height="32" rx="10"/>
  <rect x="643" y="17" width="26" height="32" class="terminal" rx="10"/>
  <text class="terminal" x="653" y="37">"</text>
  <path class="line" d="m17 33 h2 m0 0 h10 m26 0 h10 m40 0 h10 m36 0 h10 m20 0 h10 m28 0 h10 m0 0 h10 m66 0 h10 m0 0 h10 m66 0 h10 m0 0 h10 m66 0 h10 m0 0 h10 m66 0 h10 m-412 0 h20 m392 0 h20 m-432 0 q10 0 10 10 m412 0 q0 -10 10 -10 m-422 10 v24 m412 0 v-24 m-412 24 q0 10 10 10 m392 0 q10 0 10 -10 m-402 10 h10 m26 0 h10 m0 0 h346 m-402 -10 v20 m412 0 v-20 m-412 20 v24 m412 0 v-24 m-412 24 q0 10 10 10 m392 0 q10 0 10 -10 m-402 10 h10 m28 0 h10 m0 0 h344 m-402 -10 v20 m412 0 v-20 m-412 20 v24 m412 0 v-24 m-412 24 q0 10 10 10 m392 0 q10 0 10 -10 m-402 10 h10 m28 0 h10 m0 0 h344 m-402 -10 v20 m412 0 v-20 m-412 20 v24 m412 0 v-24 m-412 24 q0 10 10 10 m392 0 q10 0 10 -10 m-402 10 h10 m28 0 h10 m0 0 h344 m-402 -10 v20 m412 0 v-20 m-412 20 v24 m412 0 v-24 m-412 24 q0 10 10 10 m392 0 q10 0 10 -10 m-402 10 h10 m24 0 h10 m0 0 h348 m-402 -10 v20 m412 0 v-20 m-412 20 v24 m412 0 v-24 m-412 24 q0 10 10 10 m392 0 q10 0 10 -10 m-402 10 h10 m28 0 h10 m0 0 h344 m-402 -10 v20 m412 0 v-20 m-412 20 v24 m412 0 v-24 m-412 24 q0 10 10 10 m392 0 q10 0 10 -10 m-402 10 h10 m26 0 h10 m0 0 h346 m-402 -10 v20 m412 0 v-20 m-412 20 v24 m412 0 v-24 m-412 24 q0 10 10 10 m392 0 q10 0 10 -10 m-402 10 h10 m26 0 h10 m0 0 h346 m-402 -10 v20 m412 0 v-20 m-412 20 v24 m412 0 v-24 m-412 24 q0 10 10 10 m392 0 q10 0 10 -10 m-402 10 h10 m82 0 h10 m0 0 h290 m-488 -396 l20 0 m-1 0 q-9 0 -9 -10 l0 -12 q0 -10 10 -10 m488 32 l20 0 m-20 0 q10 0 10 -10 l0 -12 q0 -10 -10 -10 m-488 0 h10 m0 0 h478 m-528 32 h20 m528 0 h20 m-568 0 q10 0 10 10 m548 0 q0 -10 10 -10 m-558 10 v410 m548 0 v-410 m-548 410 q0 10 10 10 m528 0 q10 0 10 -10 m-538 10 h10 m0 0 h518 m20 -430 h10 m26 0 h10 m3 0 h-3"/>
  <polygon points="689 33 697 29 697 37"/>
  <polygon points="689 33 681 29 681 37"/>
</svg>
