<svg  xmlns="http://www.w3.org/2000/svg" xmlns:xlink="https://www.w3.org/1999/xlink" class="railroad-diagram" width="536" height="246" viewBox="0 0 536 246"><defs><style type="text/css">@namespace url(http://www.w3.org/2000/svg);
path {
    stroke-width: 3;
    stroke: black;
    fill: rgba(0,0,0,0);
}
text {
    font: bold 14px monospace;
    text-anchor: middle;
}
text.diagram-text {
    font-size: 12px;
}
text.diagram-arrow {
    font-size: 16px;
}
text.label {
    text-anchor: start;
}
text.comment {
    font: italic 12px monospace;
}
g.non-terminal text {
    /*font-style: italic;*/
}
rect {
    stroke-width: 3;
    stroke: black;
    fill: hsl(120,100%,90%);
}
path.diagram-text {
    stroke-width: 3;
    stroke: black;
    fill: white;
    cursor: help;
}
g.diagram-text:hover path.diagram-text {
    fill: #eee;
}</style></defs>
<g transform="translate(.5 .5)">
<path d="M 20 30 v 20 m 10 -20 v 20 m -10 -10 h 20.5"></path>
<g>
<path d="M40 40h0"></path>
<path d="M496 40h0"></path>
<path d="M40 40h20"></path>
<g>
<path d="M60 40h0"></path>
<path d="M476 40h0"></path>
<g>
<path d="M60 40h0"></path>
<path d="M128 40h0"></path>
<path d="M60 40h20"></path>
<g class="terminal">
<path d="M80 40h0"></path>
<path d="M108 40h0"></path>
<rect x="80" y="29" width="28" height="22" rx="10" ry="10"></rect>
<text x="94" y="44">'</text>
</g>
<path d="M108 40h20"></path>
</g>
<g>
<path d="M128 40h0"></path>
<path d="M408 40h0"></path>
<path d="M128 40a10 10 0 0 0 10 -10v0a10 10 0 0 1 10 -10"></path>
<g>
<path d="M148 20h240"></path>
</g>
<path d="M388 20a10 10 0 0 1 10 10v0a10 10 0 0 0 10 10"></path>
<path d="M128 40h20"></path>
<g>
<path d="M148 40h0"></path>
<path d="M388 40h0"></path>
<path d="M148 40h10"></path>
<g>
<path d="M158 40h0"></path>
<path d="M378 40h0"></path>
<path d="M158 40h20"></path>
<g class="non-terminal">
<path d="M178 40h56"></path>
<path d="M302 40h56"></path>
<rect x="234" y="29" width="68" height="22"></rect>
<a xlink:href="#Escape"><text x="268" y="44">Escape</text>
</a>
</g>
<path d="M358 40h20"></path>
<path d="M158 40a10 10 0 0 1 10 10v10a10 10 0 0 0 10 10"></path>
<g>
<path d="M178 70h0"></path>
<path d="M358 70h0"></path>
<path d="M178 70h20"></path>
<g class="terminal">
<path d="M198 70h0"></path>
<path d="M338 70h0"></path>
<rect x="198" y="59" width="140" height="22" rx="10" ry="10"></rect>
<text x="268" y="74">&#91;^' \ #x0-#x1f&#93;</text>
</g>
<path d="M338 70h20"></path>
<path d="M178 70a10 10 0 0 1 10 10v10a10 10 0 0 0 10 10"></path>
<g class="terminal">
<path d="M198 100h56"></path>
<path d="M282 100h56"></path>
<rect x="254" y="89" width="28" height="22" rx="10" ry="10"></rect>
<text x="268" y="104"> </text>
</g>
<path d="M338 100a10 10 0 0 0 10 -10v-10a10 10 0 0 1 10 -10"></path>
</g>
<path d="M358 70a10 10 0 0 0 10 -10v-10a10 10 0 0 1 10 -10"></path>
</g>
<path d="M378 40h10"></path>
<path d="M158 40a10 10 0 0 0 -10 10v59a10 10 0 0 0 10 10"></path>
<g>
<path d="M158 119h220"></path>
</g>
<path d="M378 119a10 10 0 0 0 10 -10v-59a10 10 0 0 0 -10 -10"></path>
</g>
<path d="M388 40h20"></path>
</g>
<g>
<path d="M408 40h0"></path>
<path d="M476 40h0"></path>
<path d="M408 40h20"></path>
<g class="terminal">
<path d="M428 40h0"></path>
<path d="M456 40h0"></path>
<rect x="428" y="29" width="28" height="22" rx="10" ry="10"></rect>
<text x="442" y="44">'</text>
</g>
<path d="M456 40h20"></path>
</g>
</g>
<path d="M476 40h20"></path>
<path d="M40 40a10 10 0 0 1 10 10v87a10 10 0 0 0 10 10"></path>
<g>
<path d="M60 147h0"></path>
<path d="M476 147h0"></path>
<g>
<path d="M60 147h0"></path>
<path d="M128 147h0"></path>
<path d="M60 147h20"></path>
<g class="terminal">
<path d="M80 147h0"></path>
<path d="M108 147h0"></path>
<rect x="80" y="136" width="28" height="22" rx="10" ry="10"></rect>
<text x="94" y="151">"</text>
</g>
<path d="M108 147h20"></path>
</g>
<g>
<path d="M128 147h0"></path>
<path d="M408 147h0"></path>
<path d="M128 147a10 10 0 0 0 10 -10v0a10 10 0 0 1 10 -10"></path>
<g>
<path d="M148 127h240"></path>
</g>
<path d="M388 127a10 10 0 0 1 10 10v0a10 10 0 0 0 10 10"></path>
<path d="M128 147h20"></path>
<g>
<path d="M148 147h0"></path>
<path d="M388 147h0"></path>
<path d="M148 147h10"></path>
<g>
<path d="M158 147h0"></path>
<path d="M378 147h0"></path>
<path d="M158 147h20"></path>
<g class="non-terminal">
<path d="M178 147h56"></path>
<path d="M302 147h56"></path>
<rect x="234" y="136" width="68" height="22"></rect>
<a xlink:href="#Escape"><text x="268" y="151">Escape</text>
</a>
</g>
<path d="M358 147h20"></path>
<path d="M158 147a10 10 0 0 1 10 10v10a10 10 0 0 0 10 10"></path>
<g>
<path d="M178 177h0"></path>
<path d="M358 177h0"></path>
<path d="M178 177h20"></path>
<g class="terminal">
<path d="M198 177h0"></path>
<path d="M338 177h0"></path>
<rect x="198" y="166" width="140" height="22" rx="10" ry="10"></rect>
<text x="268" y="181">&#91;^" \ #x0-#x1f&#93;</text>
</g>
<path d="M338 177h20"></path>
<path d="M178 177a10 10 0 0 1 10 10v10a10 10 0 0 0 10 10"></path>
<g class="terminal">
<path d="M198 207h56"></path>
<path d="M282 207h56"></path>
<rect x="254" y="196" width="28" height="22" rx="10" ry="10"></rect>
<text x="268" y="211"> </text>
</g>
<path d="M338 207a10 10 0 0 0 10 -10v-10a10 10 0 0 1 10 -10"></path>
</g>
<path d="M358 177a10 10 0 0 0 10 -10v-10a10 10 0 0 1 10 -10"></path>
</g>
<path d="M378 147h10"></path>
<path d="M158 147a10 10 0 0 0 -10 10v59a10 10 0 0 0 10 10"></path>
<g>
<path d="M158 226h220"></path>
</g>
<path d="M378 226a10 10 0 0 0 10 -10v-59a10 10 0 0 0 -10 -10"></path>
</g>
<path d="M388 147h20"></path>
</g>
<g>
<path d="M408 147h0"></path>
<path d="M476 147h0"></path>
<path d="M408 147h20"></path>
<g class="terminal">
<path d="M428 147h0"></path>
<path d="M456 147h0"></path>
<rect x="428" y="136" width="28" height="22" rx="10" ry="10"></rect>
<text x="442" y="151">"</text>
</g>
<path d="M456 147h20"></path>
</g>
</g>
<path d="M476 147a10 10 0 0 0 10 -10v-87a10 10 0 0 1 10 -10"></path>
</g>
<path d="M 496 40 h 20 m -10 -10 v 20 m 10 -20 v 20"></path>
</g>
</svg>
