<svg  xmlns="http://www.w3.org/2000/svg" xmlns:xlink="https://www.w3.org/1999/xlink" class="railroad-diagram" width="496" height="186" viewBox="0 0 496 186"><defs><style type="text/css">@namespace url(http://www.w3.org/2000/svg);
path {
    stroke-width: 3;
    stroke: black;
    fill: rgba(0,0,0,0);
}
text {
    font: bold 14px monospace;
    text-anchor: middle;
}
text.diagram-text {
    font-size: 12px;
}
text.diagram-arrow {
    font-size: 16px;
}
text.label {
    text-anchor: start;
}
text.comment {
    font: italic 12px monospace;
}
g.non-terminal text {
    /*font-style: italic;*/
}
rect {
    stroke-width: 3;
    stroke: black;
    fill: hsl(120,100%,90%);
}
path.diagram-text {
    stroke-width: 3;
    stroke: black;
    fill: white;
    cursor: help;
}
g.diagram-text:hover path.diagram-text {
    fill: #eee;
}</style></defs>
<g transform="translate(.5 .5)">
<path d="M 20 30 v 20 m 10 -20 v 20 m -10 -10 h 20.5"></path>
<g>
<path d="M40 40h0"></path>
<path d="M456 40h0"></path>
<path d="M40 40h20"></path>
<g>
<path d="M60 40h0"></path>
<path d="M436 40h0"></path>
<g>
<path d="M60 40h0"></path>
<path d="M128 40h0"></path>
<path d="M60 40h20"></path>
<g class="terminal">
<path d="M80 40h0"></path>
<path d="M108 40h0"></path>
<rect x="80" y="29" width="28" height="22" rx="10" ry="10"></rect>
<text x="94" y="44">'</text>
</g>
<path d="M108 40h20"></path>
</g>
<g>
<path d="M128 40h0"></path>
<path d="M368 40h0"></path>
<path d="M128 40a10 10 0 0 0 10 -10v0a10 10 0 0 1 10 -10"></path>
<g>
<path d="M148 20h200"></path>
</g>
<path d="M348 20a10 10 0 0 1 10 10v0a10 10 0 0 0 10 10"></path>
<path d="M128 40h20"></path>
<g>
<path d="M148 40h0"></path>
<path d="M348 40h0"></path>
<path d="M148 40h10"></path>
<g>
<path d="M158 40h0"></path>
<path d="M338 40h0"></path>
<path d="M158 40h20"></path>
<g class="non-terminal">
<path d="M178 40h36"></path>
<path d="M282 40h36"></path>
<rect x="214" y="29" width="68" height="22"></rect>
<a xlink:href="#Escape"><text x="248" y="44">Escape</text>
</a>
</g>
<path d="M318 40h20"></path>
<path d="M158 40a10 10 0 0 1 10 10v10a10 10 0 0 0 10 10"></path>
<g class="terminal">
<path d="M178 70h0"></path>
<path d="M318 70h0"></path>
<rect x="178" y="59" width="140" height="22" rx="10" ry="10"></rect>
<text x="248" y="74">&#91;^' \ #x0-#x1f&#93;</text>
</g>
<path d="M318 70a10 10 0 0 0 10 -10v-10a10 10 0 0 1 10 -10"></path>
</g>
<path d="M338 40h10"></path>
<path d="M158 40a10 10 0 0 0 -10 10v29a10 10 0 0 0 10 10"></path>
<g>
<path d="M158 89h180"></path>
</g>
<path d="M338 89a10 10 0 0 0 10 -10v-29a10 10 0 0 0 -10 -10"></path>
</g>
<path d="M348 40h20"></path>
</g>
<g>
<path d="M368 40h0"></path>
<path d="M436 40h0"></path>
<path d="M368 40h20"></path>
<g class="terminal">
<path d="M388 40h0"></path>
<path d="M416 40h0"></path>
<rect x="388" y="29" width="28" height="22" rx="10" ry="10"></rect>
<text x="402" y="44">'</text>
</g>
<path d="M416 40h20"></path>
</g>
</g>
<path d="M436 40h20"></path>
<path d="M40 40a10 10 0 0 1 10 10v57a10 10 0 0 0 10 10"></path>
<g>
<path d="M60 117h0"></path>
<path d="M436 117h0"></path>
<g>
<path d="M60 117h0"></path>
<path d="M128 117h0"></path>
<path d="M60 117h20"></path>
<g class="terminal">
<path d="M80 117h0"></path>
<path d="M108 117h0"></path>
<rect x="80" y="106" width="28" height="22" rx="10" ry="10"></rect>
<text x="94" y="121">"</text>
</g>
<path d="M108 117h20"></path>
</g>
<g>
<path d="M128 117h0"></path>
<path d="M368 117h0"></path>
<path d="M128 117a10 10 0 0 0 10 -10v0a10 10 0 0 1 10 -10"></path>
<g>
<path d="M148 97h200"></path>
</g>
<path d="M348 97a10 10 0 0 1 10 10v0a10 10 0 0 0 10 10"></path>
<path d="M128 117h20"></path>
<g>
<path d="M148 117h0"></path>
<path d="M348 117h0"></path>
<path d="M148 117h10"></path>
<g>
<path d="M158 117h0"></path>
<path d="M338 117h0"></path>
<path d="M158 117h20"></path>
<g class="non-terminal">
<path d="M178 117h36"></path>
<path d="M282 117h36"></path>
<rect x="214" y="106" width="68" height="22"></rect>
<a xlink:href="#Escape"><text x="248" y="121">Escape</text>
</a>
</g>
<path d="M318 117h20"></path>
<path d="M158 117a10 10 0 0 1 10 10v10a10 10 0 0 0 10 10"></path>
<g class="terminal">
<path d="M178 147h0"></path>
<path d="M318 147h0"></path>
<rect x="178" y="136" width="140" height="22" rx="10" ry="10"></rect>
<text x="248" y="151">&#91;^" \ #x0-#x1f&#93;</text>
</g>
<path d="M318 147a10 10 0 0 0 10 -10v-10a10 10 0 0 1 10 -10"></path>
</g>
<path d="M338 117h10"></path>
<path d="M158 117a10 10 0 0 0 -10 10v29a10 10 0 0 0 10 10"></path>
<g>
<path d="M158 166h180"></path>
</g>
<path d="M338 166a10 10 0 0 0 10 -10v-29a10 10 0 0 0 -10 -10"></path>
</g>
<path d="M348 117h20"></path>
</g>
<g>
<path d="M368 117h0"></path>
<path d="M436 117h0"></path>
<path d="M368 117h20"></path>
<g class="terminal">
<path d="M388 117h0"></path>
<path d="M416 117h0"></path>
<rect x="388" y="106" width="28" height="22" rx="10" ry="10"></rect>
<text x="402" y="121">"</text>
</g>
<path d="M416 117h20"></path>
</g>
</g>
<path d="M436 117a10 10 0 0 0 10 -10v-57a10 10 0 0 1 10 -10"></path>
</g>
<path d="M 456 40 h 20 m -10 -10 v 20 m 10 -20 v 20"></path>
</g>
</svg>
