<?xml version="1.0"?>
<svg xmlns="http://www.w3.org/2000/svg" xmlns:xlink="http://www.w3.org/1999/xlink" width="222" height="36">
  <defs>
    <style type="text/css">@import url("json-plus-railroads-svg.css");</style>
    <script xlink:href="json-plus-railroads-svg.js"/>
  </defs>
  <polygon points="9 17 1 13 1 21"/>
  <polygon points="17 17 9 13 9 21"/>
  <polygon points="31 19 38 3 188 3 195 19 188 35 38 35"/>
  <polygon points="29 17 36 1 186 1 193 17 186 33 36 33" class="regexp"/>
  <text class="regexp" x="44" y="21">[^ "\#x0000-#x001f]</text>
  <path class="line" d="m17 17 h2 m0 0 h10 m164 0 h10 m3 0 h-3"/>
  <polygon points="213 17 221 13 221 21"/>
  <polygon points="213 17 205 13 205 21"/>
</svg>
