<svg  xmlns="http://www.w3.org/2000/svg" xmlns:xlink="https://www.w3.org/1999/xlink" class="railroad-diagram" width="788" height="409" viewBox="0 0 788 409"><defs><style type="text/css">@namespace url(http://www.w3.org/2000/svg);
path {
    stroke-width: 3;
    stroke: black;
    fill: rgba(0,0,0,0);
}
text {
    font: bold 14px monospace;
    text-anchor: middle;
}
text.diagram-text {
    font-size: 12px;
}
text.diagram-arrow {
    font-size: 16px;
}
text.label {
    text-anchor: start;
}
text.comment {
    font: italic 12px monospace;
}
g.non-terminal text {
    /*font-style: italic;*/
}
rect {
    stroke-width: 3;
    stroke: black;
    fill: hsl(120,100%,90%);
}
path.diagram-text {
    stroke-width: 3;
    stroke: black;
    fill: white;
    cursor: help;
}
g.diagram-text:hover path.diagram-text {
    fill: #eee;
}</style></defs>
<g transform="translate(.5 .5)">
<path d="M 20 30 v 20 m 10 -20 v 20 m -10 -10 h 20.5"></path>
<path d="M40 40h10"></path>
<g>
<path d="M50 40h0"></path>
<path d="M738 40h0"></path>
<g>
<path d="M50 40h0"></path>
<path d="M118 40h0"></path>
<path d="M50 40h20"></path>
<g class="terminal">
<path d="M70 40h0"></path>
<path d="M98 40h0"></path>
<rect x="70" y="29" width="28" height="22" rx="10" ry="10"></rect>
<text x="84" y="44">"</text>
</g>
<path d="M98 40h20"></path>
</g>
<g>
<path d="M118 40h0"></path>
<path d="M670 40h0"></path>
<path d="M118 40a10 10 0 0 0 10 -10v0a10 10 0 0 1 10 -10"></path>
<g>
<path d="M138 20h512"></path>
</g>
<path d="M650 20a10 10 0 0 1 10 10v0a10 10 0 0 0 10 10"></path>
<path d="M118 40h20"></path>
<g>
<path d="M138 40h0"></path>
<path d="M650 40h0"></path>
<path d="M138 40h10"></path>
<g>
<path d="M148 40h0"></path>
<path d="M640 40h0"></path>
<path d="M148 40h20"></path>
<g>
<path d="M168 40h156"></path>
<path d="M464 40h156"></path>
<path d="M324 40h20"></path>
<g class="terminal">
<path d="M344 40h36"></path>
<path d="M408 40h36"></path>
<rect x="380" y="29" width="28" height="22" rx="10" ry="10"></rect>
<text x="394" y="44">"</text>
</g>
<path d="M444 40h20"></path>
<path d="M324 40a10 10 0 0 1 10 10v10a10 10 0 0 0 10 10"></path>
<g class="terminal">
<path d="M344 70h36"></path>
<path d="M408 70h36"></path>
<rect x="380" y="59" width="28" height="22" rx="10" ry="10"></rect>
<text x="394" y="74">\</text>
</g>
<path d="M444 70a10 10 0 0 0 10 -10v-10a10 10 0 0 1 10 -10"></path>
<path d="M324 40a10 10 0 0 1 10 10v40a10 10 0 0 0 10 10"></path>
<g class="terminal">
<path d="M344 100h0"></path>
<path d="M444 100h0"></path>
<rect x="344" y="89" width="100" height="22" rx="10" ry="10"></rect>
<text x="394" y="104">&#91;#x0-#x1f&#93;</text>
</g>
<path d="M444 100a10 10 0 0 0 10 -10v-40a10 10 0 0 1 10 -10"></path>
</g>
<path d="M620 40h20"></path>
<path d="M148 40a10 10 0 0 1 10 10v70a10 10 0 0 0 10 10"></path>
<g>
<path d="M168 130h173"></path>
<path d="M447 130h173"></path>
<g class="terminal">
<path d="M341 130h0"></path>
<path d="M369 130h0"></path>
<rect x="341" y="119" width="28" height="22" rx="10" ry="10"></rect>
<text x="355" y="134">\</text>
</g>
<path d="M369 130h10"></path>
<g>
<path d="M379 130h0"></path>
<path d="M447 130h0"></path>
<path d="M379 130h20"></path>
<g class="terminal">
<path d="M399 130h0"></path>
<path d="M427 130h0"></path>
<rect x="399" y="119" width="28" height="22" rx="10" ry="10"></rect>
<text x="413" y="134">"</text>
</g>
<path d="M427 130h20"></path>
<path d="M379 130a10 10 0 0 1 10 10v10a10 10 0 0 0 10 10"></path>
<g class="terminal">
<path d="M399 160h0"></path>
<path d="M427 160h0"></path>
<rect x="399" y="149" width="28" height="22" rx="10" ry="10"></rect>
<text x="413" y="164">/</text>
</g>
<path d="M427 160a10 10 0 0 0 10 -10v-10a10 10 0 0 1 10 -10"></path>
<path d="M379 130a10 10 0 0 1 10 10v40a10 10 0 0 0 10 10"></path>
<g class="terminal">
<path d="M399 190h0"></path>
<path d="M427 190h0"></path>
<rect x="399" y="179" width="28" height="22" rx="10" ry="10"></rect>
<text x="413" y="194">\</text>
</g>
<path d="M427 190a10 10 0 0 0 10 -10v-40a10 10 0 0 1 10 -10"></path>
<path d="M379 130a10 10 0 0 1 10 10v70a10 10 0 0 0 10 10"></path>
<g class="terminal">
<path d="M399 220h0"></path>
<path d="M427 220h0"></path>
<rect x="399" y="209" width="28" height="22" rx="10" ry="10"></rect>
<text x="413" y="224">b</text>
</g>
<path d="M427 220a10 10 0 0 0 10 -10v-70a10 10 0 0 1 10 -10"></path>
<path d="M379 130a10 10 0 0 1 10 10v100a10 10 0 0 0 10 10"></path>
<g class="terminal">
<path d="M399 250h0"></path>
<path d="M427 250h0"></path>
<rect x="399" y="239" width="28" height="22" rx="10" ry="10"></rect>
<text x="413" y="254">f</text>
</g>
<path d="M427 250a10 10 0 0 0 10 -10v-100a10 10 0 0 1 10 -10"></path>
<path d="M379 130a10 10 0 0 1 10 10v130a10 10 0 0 0 10 10"></path>
<g class="terminal">
<path d="M399 280h0"></path>
<path d="M427 280h0"></path>
<rect x="399" y="269" width="28" height="22" rx="10" ry="10"></rect>
<text x="413" y="284">n</text>
</g>
<path d="M427 280a10 10 0 0 0 10 -10v-130a10 10 0 0 1 10 -10"></path>
<path d="M379 130a10 10 0 0 1 10 10v160a10 10 0 0 0 10 10"></path>
<g class="terminal">
<path d="M399 310h0"></path>
<path d="M427 310h0"></path>
<rect x="399" y="299" width="28" height="22" rx="10" ry="10"></rect>
<text x="413" y="314">r</text>
</g>
<path d="M427 310a10 10 0 0 0 10 -10v-160a10 10 0 0 1 10 -10"></path>
<path d="M379 130a10 10 0 0 1 10 10v190a10 10 0 0 0 10 10"></path>
<g class="terminal">
<path d="M399 340h0"></path>
<path d="M427 340h0"></path>
<rect x="399" y="329" width="28" height="22" rx="10" ry="10"></rect>
<text x="413" y="344">t</text>
</g>
<path d="M427 340a10 10 0 0 0 10 -10v-190a10 10 0 0 1 10 -10"></path>
</g>
</g>
<path d="M620 130a10 10 0 0 0 10 -10v-70a10 10 0 0 1 10 -10"></path>
<path d="M148 40a10 10 0 0 1 10 10v310a10 10 0 0 0 10 10"></path>
<g>
<path d="M168 370h0"></path>
<path d="M620 370h0"></path>
<g class="terminal">
<path d="M168 370h0"></path>
<path d="M204 370h0"></path>
<rect x="168" y="359" width="36" height="22" rx="10" ry="10"></rect>
<text x="186" y="374">\u</text>
</g>
<path d="M204 370h10"></path>
<path d="M214 370h10"></path>
<g>
<path d="M224 370h0"></path>
<path d="M620 370h0"></path>
<g class="non-terminal">
<path d="M224 370h0"></path>
<path d="M308 370h0"></path>
<rect x="224" y="359" width="84" height="22"></rect>
<a xlink:href="#HexDigit"><text x="266" y="374">HexDigit</text>
</a>
</g>
<path d="M308 370h10"></path>
<path d="M318 370h10"></path>
<g class="non-terminal">
<path d="M328 370h0"></path>
<path d="M412 370h0"></path>
<rect x="328" y="359" width="84" height="22"></rect>
<a xlink:href="#HexDigit"><text x="370" y="374">HexDigit</text>
</a>
</g>
<path d="M412 370h10"></path>
<path d="M422 370h10"></path>
<g class="non-terminal">
<path d="M432 370h0"></path>
<path d="M516 370h0"></path>
<rect x="432" y="359" width="84" height="22"></rect>
<a xlink:href="#HexDigit"><text x="474" y="374">HexDigit</text>
</a>
</g>
<path d="M516 370h10"></path>
<path d="M526 370h10"></path>
<g class="non-terminal">
<path d="M536 370h0"></path>
<path d="M620 370h0"></path>
<rect x="536" y="359" width="84" height="22"></rect>
<a xlink:href="#HexDigit"><text x="578" y="374">HexDigit</text>
</a>
</g>
</g>
</g>
<path d="M620 370a10 10 0 0 0 10 -10v-310a10 10 0 0 1 10 -10"></path>
</g>
<path d="M640 40h10"></path>
<path d="M148 40a10 10 0 0 0 -10 10v329a10 10 0 0 0 10 10"></path>
<g>
<path d="M148 389h492"></path>
</g>
<path d="M640 389a10 10 0 0 0 10 -10v-329a10 10 0 0 0 -10 -10"></path>
</g>
<path d="M650 40h20"></path>
</g>
<g>
<path d="M670 40h0"></path>
<path d="M738 40h0"></path>
<path d="M670 40h20"></path>
<g class="terminal">
<path d="M690 40h0"></path>
<path d="M718 40h0"></path>
<rect x="690" y="29" width="28" height="22" rx="10" ry="10"></rect>
<text x="704" y="44">"</text>
</g>
<path d="M718 40h20"></path>
</g>
</g>
<path d="M738 40h10"></path>
<path d="M 748 40 h 20 m -10 -10 v 20 m 10 -20 v 20"></path>
</g>
</svg>
