<svg  xmlns="http://www.w3.org/2000/svg" xmlns:xlink="https://www.w3.org/1999/xlink" class="railroad-diagram" width="428" height="272" viewBox="0 0 428 272"><defs><style type="text/css">@namespace url(http://www.w3.org/2000/svg);
path {
    stroke-width: 3;
    stroke: black;
    fill: rgba(0,0,0,0);
}
text {
    font: bold 14px monospace;
    text-anchor: middle;
}
text.diagram-text {
    font-size: 12px;
}
text.diagram-arrow {
    font-size: 16px;
}
text.label {
    text-anchor: start;
}
text.comment {
    font: italic 12px monospace;
}
g.non-terminal text {
    /*font-style: italic;*/
}
rect {
    stroke-width: 3;
    stroke: black;
    fill: hsl(120,100%,90%);
}
path.diagram-text {
    stroke-width: 3;
    stroke: black;
    fill: white;
    cursor: help;
}
g.diagram-text:hover path.diagram-text {
    fill: #eee;
}</style></defs>
<g transform="translate(.5 .5)">
<path d="M 20 21 v 20 m 10 -20 v 20 m -10 -10 h 20.5"></path>
<path d="M40 31h10"></path>
<g>
<path d="M50 31h0"></path>
<path d="M378 31h0"></path>
<g>
<path d="M50 31h0"></path>
<path d="M238 31h0"></path>
<path d="M50 31h20"></path>
<g>
<path d="M70 31h148"></path>
</g>
<path d="M218 31h20"></path>
<path d="M50 31a10 10 0 0 1 10 10v0a10 10 0 0 0 10 10"></path>
<g>
<path d="M70 51h0"></path>
<path d="M218 51h0"></path>
<g class="non-terminal">
<path d="M70 51h0"></path>
<path d="M170 51h0"></path>
<rect x="70" y="40" width="100" height="22"></rect>
<a xlink:href="#Identifier"><text x="120" y="55">Identifier</text>
</a>
</g>
<path d="M170 51h10"></path>
<path d="M180 51h10"></path>
<g class="terminal">
<path d="M190 51h0"></path>
<path d="M218 51h0"></path>
<rect x="190" y="40" width="28" height="22" rx="10" ry="10"></rect>
<text x="204" y="55">:</text>
</g>
</g>
<path d="M218 51a10 10 0 0 0 10 -10v0a10 10 0 0 1 10 -10"></path>
</g>
<g>
<path d="M238 31h0"></path>
<path d="M378 31h0"></path>
<path d="M238 31h20"></path>
<g class="non-terminal">
<path d="M258 31h16"></path>
<path d="M342 31h16"></path>
<rect x="274" y="20" width="68" height="22"></rect>
<a xlink:href="#Object"><text x="308" y="35">Object</text>
</a>
</g>
<path d="M358 31h20"></path>
<path d="M238 31a10 10 0 0 1 10 10v10a10 10 0 0 0 10 10"></path>
<g class="non-terminal">
<path d="M258 61h20"></path>
<path d="M338 61h20"></path>
<rect x="278" y="50" width="60" height="22"></rect>
<a xlink:href="#Array"><text x="308" y="65">Array</text>
</a>
</g>
<path d="M358 61a10 10 0 0 0 10 -10v-10a10 10 0 0 1 10 -10"></path>
<path d="M238 31a10 10 0 0 1 10 10v40a10 10 0 0 0 10 10"></path>
<g class="non-terminal">
<path d="M258 91h16"></path>
<path d="M342 91h16"></path>
<rect x="274" y="80" width="68" height="22"></rect>
<a xlink:href="#String"><text x="308" y="95">String</text>
</a>
</g>
<path d="M358 91a10 10 0 0 0 10 -10v-40a10 10 0 0 1 10 -10"></path>
<path d="M238 31a10 10 0 0 1 10 10v70a10 10 0 0 0 10 10"></path>
<g>
<path d="M258 121h0"></path>
<path d="M358 121h0"></path>
<path d="M258 121h20"></path>
<g class="terminal">
<path d="M278 121h4"></path>
<path d="M334 121h4"></path>
<rect x="282" y="110" width="52" height="22" rx="10" ry="10"></rect>
<text x="308" y="125">true</text>
</g>
<path d="M338 121h20"></path>
<path d="M258 121a10 10 0 0 1 10 10v10a10 10 0 0 0 10 10"></path>
<g class="terminal">
<path d="M278 151h0"></path>
<path d="M338 151h0"></path>
<rect x="278" y="140" width="60" height="22" rx="10" ry="10"></rect>
<text x="308" y="155">false</text>
</g>
<path d="M338 151a10 10 0 0 0 10 -10v-10a10 10 0 0 1 10 -10"></path>
</g>
<path d="M358 121a10 10 0 0 0 10 -10v-70a10 10 0 0 1 10 -10"></path>
<path d="M238 31a10 10 0 0 1 10 10v130a10 10 0 0 0 10 10"></path>
<g class="terminal">
<path d="M258 181h24"></path>
<path d="M334 181h24"></path>
<rect x="282" y="170" width="52" height="22" rx="10" ry="10"></rect>
<text x="308" y="185">null</text>
</g>
<path d="M358 181a10 10 0 0 0 10 -10v-130a10 10 0 0 1 10 -10"></path>
<path d="M238 31a10 10 0 0 1 10 10v160a10 10 0 0 0 10 10"></path>
<g class="non-terminal">
<path d="M258 211h16"></path>
<path d="M342 211h16"></path>
<rect x="274" y="200" width="68" height="22"></rect>
<a xlink:href="#Number"><text x="308" y="215">Number</text>
</a>
</g>
<path d="M358 211a10 10 0 0 0 10 -10v-160a10 10 0 0 1 10 -10"></path>
<path d="M238 31a10 10 0 0 1 10 10v190a10 10 0 0 0 10 10"></path>
<g class="non-terminal">
<path d="M258 241h4"></path>
<path d="M354 241h4"></path>
<rect x="262" y="230" width="92" height="22"></rect>
<a xlink:href="#Reference"><text x="308" y="245">Reference</text>
</a>
</g>
<path d="M358 241a10 10 0 0 0 10 -10v-190a10 10 0 0 1 10 -10"></path>
</g>
</g>
<path d="M378 31h10"></path>
<path d="M 388 31 h 20 m -10 -10 v 20 m 10 -20 v 20"></path>
</g>
</svg>
