<?xml version="1.0"?>
<svg xmlns="http://www.w3.org/2000/svg" xmlns:xlink="http://www.w3.org/1999/xlink" width="330" height="344">
  <defs>
    <style type="text/css">@import url("json-plus-railroads-svg.css");</style>
    <script xlink:href="json-plus-railroads-svg.js"/>
  </defs>
  <polygon points="9 17 1 13 1 21"/>
  <polygon points="17 17 9 13 9 21"/>
  <a xlink:href="#Label" xlink:title="Label" href="#Label" target="_parent">
    <rect x="51" y="35" width="50" height="32"/>
    <rect x="49" y="33" width="50" height="32" class="nonterminal"/>
    <text class="nonterminal" x="59" y="53">Label</text>
  </a>
  <rect x="121" y="35" width="24" height="32" rx="10"/>
  <rect x="119" y="33" width="24" height="32" class="terminal" rx="10"/>
  <text class="terminal" x="129" y="53">:</text>
  <a xlink:href="#Object" xlink:title="Object" href="#Object" target="_parent">
    <rect x="205" y="3" width="58" height="32"/>
    <rect x="203" y="1" width="58" height="32" class="nonterminal"/>
    <text class="nonterminal" x="213" y="21">Object</text>
  </a>
  <a xlink:href="#Array" xlink:title="Array" href="#Array" target="_parent">
    <rect x="205" y="47" width="52" height="32"/>
    <rect x="203" y="45" width="52" height="32" class="nonterminal"/>
    <text class="nonterminal" x="213" y="65">Array</text>
  </a>
  <a xlink:href="#String" xlink:title="String" href="#String" target="_parent">
    <rect x="205" y="91" width="54" height="32"/>
    <rect x="203" y="89" width="54" height="32" class="nonterminal"/>
    <text class="nonterminal" x="213" y="109">String</text>
  </a>
  <a xlink:href="#Number" xlink:title="Number" href="#Number" target="_parent">
    <rect x="205" y="135" width="66" height="32"/>
    <rect x="203" y="133" width="66" height="32" class="nonterminal"/>
    <text class="nonterminal" x="213" y="153">Number</text>
  </a>
  <a xlink:href="#Reference" xlink:title="Reference" href="#Reference" target="_parent">
    <rect x="205" y="179" width="78" height="32"/>
    <rect x="203" y="177" width="78" height="32" class="nonterminal"/>
    <text class="nonterminal" x="213" y="197">Reference</text>
  </a>
  <rect x="205" y="223" width="46" height="32" rx="10"/>
  <rect x="203" y="221" width="46" height="32" class="terminal" rx="10"/>
  <text class="terminal" x="213" y="241">true</text>
  <rect x="205" y="267" width="50" height="32" rx="10"/>
  <rect x="203" y="265" width="50" height="32" class="terminal" rx="10"/>
  <text class="terminal" x="213" y="285">false</text>
  <rect x="205" y="311" width="42" height="32" rx="10"/>
  <rect x="203" y="309" width="42" height="32" class="terminal" rx="10"/>
  <text class="terminal" x="213" y="329">null</text>
  <path class="line" d="m17 17 h2 m20 0 h10 m0 0 h104 m-134 0 h20 m114 0 h20 m-154 0 q10 0 10 10 m134 0 q0 -10 10 -10 m-144 10 v12 m134 0 v-12 m-134 12 q0 10 10 10 m114 0 q10 0 10 -10 m-124 10 h10 m50 0 h10 m0 0 h10 m24 0 h10 m40 -32 h10 m58 0 h10 m0 0 h20 m-118 0 h20 m98 0 h20 m-138 0 q10 0 10 10 m118 0 q0 -10 10 -10 m-128 10 v24 m118 0 v-24 m-118 24 q0 10 10 10 m98 0 q10 0 10 -10 m-108 10 h10 m52 0 h10 m0 0 h26 m-108 -10 v20 m118 0 v-20 m-118 20 v24 m118 0 v-24 m-118 24 q0 10 10 10 m98 0 q10 0 10 -10 m-108 10 h10 m54 0 h10 m0 0 h24 m-108 -10 v20 m118 0 v-20 m-118 20 v24 m118 0 v-24 m-118 24 q0 10 10 10 m98 0 q10 0 10 -10 m-108 10 h10 m66 0 h10 m0 0 h12 m-108 -10 v20 m118 0 v-20 m-118 20 v24 m118 0 v-24 m-118 24 q0 10 10 10 m98 0 q10 0 10 -10 m-108 10 h10 m78 0 h10 m-108 -10 v20 m118 0 v-20 m-118 20 v24 m118 0 v-24 m-118 24 q0 10 10 10 m98 0 q10 0 10 -10 m-108 10 h10 m46 0 h10 m0 0 h32 m-108 -10 v20 m118 0 v-20 m-118 20 v24 m118 0 v-24 m-118 24 q0 10 10 10 m98 0 q10 0 10 -10 m-108 10 h10 m50 0 h10 m0 0 h28 m-108 -10 v20 m118 0 v-20 m-118 20 v24 m118 0 v-24 m-118 24 q0 10 10 10 m98 0 q10 0 10 -10 m-108 10 h10 m42 0 h10 m0 0 h36 m23 -308 h-3"/>
  <polygon points="321 17 329 13 329 21"/>
  <polygon points="321 17 313 13 313 21"/>
</svg>
